<svg xmlns="http://www.w3.org/2000/svg" width="545.853" height="430.207" viewBox="0 0 545.853 430.207">
  <g id="Group_16" data-name="Group 16" transform="translate(-1112.147 -336.793)">
    <path id="Icon_simple-adobephotoshop" data-name="Icon simple-adobephotoshop" d="M0,.45v240H246.154V.45ZM10.256,10.706H235.9V230.194H10.256ZM59.487,56.655c0-.687,1.436-1.19,2.3-1.19,6.605-.338,16.287-.513,26.441-.513,28.431,0,39.487,15.59,39.487,35.549,0,26.051-18.892,37.231-42.072,37.231-3.9,0-5.231-.174-7.949-.174v39.405c0,.851-.338,1.19-1.179,1.19H60.677c-.851,0-1.179-.308-1.179-1.159V56.655Zm18.205,54.482c2.359.164,4.226.164,8.308.164,12,0,23.282-4.226,23.282-20.472,0-13.026-8.062-19.631-21.764-19.631-4.062,0-7.949.164-9.815.338v39.631Zm88.277-12.185c-8.123,0-10.831,4.062-10.831,7.446,0,3.723,1.846,6.256,12.687,11.846,16.082,7.795,21.149,15.231,21.149,26.226,0,16.41-12.513,25.231-29.436,25.231-8.985,0-16.615-1.877-21.026-4.41-.667-.338-.82-.841-.82-1.692V148.553c0-1.026.492-1.364,1.169-.862a37.783,37.783,0,0,0,20.636,6.092c8.123,0,11.508-3.385,11.508-7.959,0-3.723-2.359-6.944-12.687-12.359-14.564-6.974-20.656-14.051-20.656-25.918,0-13.2,10.318-24.205,28.256-24.205,8.821,0,15.015,1.354,18.4,2.872a2.236,2.236,0,0,1,1.026,2.031V102.3c0,.851-.513,1.364-1.538,1.026-4.554-2.708-11.282-4.41-17.877-4.41Z" transform="translate(1112.147 526.55)" fill="#007ddb"/>
    <path id="Icon_simple-adobelightroomclassic" data-name="Icon simple-adobelightroomclassic" d="M0,.45v116H118.974V.45ZM4.957,5.407h109.06V111.493H4.957Zm28,75.97c-.575,0-.734-.248-.734-.734V27.383c0-.411.164-.654.575-.654H40.65c.416,0,.5.183.5.595v45.9H61.594c.411,0,.525.164.446.575l-1.229,7.039a.649.649,0,0,1-.734.57H32.966Zm36.694-32.1c0-.595,0-2.062-.248-4.843,0-.411.089-.5.416-.654a52.472,52.472,0,0,1,18.218-3.43c.4,0,.555.084.555.5v7.2c0,.416-.164.5-.575.5-3.113-.164-7.753.248-9.468.982V80.8c0,.406-.164.57-.575.57H70.19c-.4,0-.565-.164-.565-.575V49.264Z" transform="translate(1255.009 387.653)" fill="#2fa3f7"/>
    <path id="Icon_simple-adobepremiere" data-name="Icon simple-adobepremiere" d="M0,.45V151.674H155.1V.45ZM6.463,6.913H148.639v138.3H6.463ZM40.695,35.852c0-.427.11-.75.646-.75,4.155-.213,10.23-.323,16.628-.323,17.914,0,25.7,9.817,25.7,22.4,0,16.415-11.885,23.459-26.49,23.459-2.456,0-3.309-.11-5.015-.11v24.836c0,.536-.213.75-.743.75H41.444c-.536,0-.75-.213-.75-.75ZM52.166,70.188c1.493.1,2.669.1,5.228.1,7.568,0,14.651-2.663,14.651-12.9,0-8.207-5.054-12.369-13.694-12.369-2.559,0-5.008.1-6.185.213Zm41.36-5.868c0-.743,0-2.663-.317-6.288,0-.536.071-.646.5-.853A67.34,67.34,0,0,1,117.341,52.7c.53,0,.743.1.743.64v9.384c0,.53-.168.64-.7.64a37,37,0,0,0-12.214,1.28v40.721c0,.536-.22.75-.75.75H94.27c-.53,0-.743-.213-.743-.75Z" transform="translate(1436.046 591.55)" fill="#e373f7"/>
    <path id="Icon_simple-adobeindesign" data-name="Icon simple-adobeindesign" d="M0,.45V78.794H80.353V.45ZM3.348,3.8H77V75.446H3.348Zm26.031,50.95c0,.335-.057.442-.442.442H23.794c-.335,0-.442-.167-.442-.442V18.8c0-.335.167-.442.442-.442h5.2c.275,0,.385.11.385.388v36ZM35.3,41.785c0-8.012,5.283-14.253,13.734-14.253.716,0,1.1,0,1.768.05V18.7a.323.323,0,0,1,.335-.335h5.441c.281,0,.335.114.335.281V49.964a24.939,24.939,0,0,0,.167,3.361c0,.221-.067.278-.291.388a20.3,20.3,0,0,1-8.785,1.992c-7.409,0-12.712-4.587-12.712-13.921ZM50.806,33a4.962,4.962,0,0,0-1.989-.335c-4.3,0-7.322,3.315-7.322,8.839,0,6.3,3.073,8.839,6.94,8.839a6.479,6.479,0,0,0,2.377-.385V33Z" transform="translate(1577.647 396.378)" fill="#007ddb"/>
    <path id="Icon_simple-adobeillustrator" data-name="Icon simple-adobeillustrator" d="M0,.45V133.994H136.969V.45ZM5.707,6.157H131.262v122.13H5.707Zm41.8,69.911-4.52,17.11c-.1.474-.285.582-.845.582H33.769c-.571,0-.656-.188-.571-.845L49.406,36.159a17.6,17.6,0,0,0,.559-4.754c0-.377.188-.571.474-.571H62.4c.377,0,.571.1.662.571l18.177,61.6c.1.474,0,.753-.474.753H71.349c-.474,0-.753-.114-.845-.491L65.8,76.062h-18.3Zm15.911-9.274c-1.6-6.312-5.365-20.134-6.78-26.823h-.1c-1.221,6.677-4.235,17.977-6.592,26.823ZM89.1,35.075a5.838,5.838,0,1,1,11.677,0c0,3.767-2.454,5.838-5.935,5.838-3.424,0-5.764-2.072-5.764-5.838Zm.639,12.978c0-.457.188-.628.662-.628h8.96c.5,0,.685.188.685.662V93.144c0,.474-.091.662-.656.662H90.548c-.571,0-.759-.285-.759-.742V48.047Z" transform="translate(1399.029 440.778)" fill="#ff6c0a"/>
    <path id="Icon_simple-adobedreamweaver" data-name="Icon simple-adobedreamweaver" d="M0,.45V42.245H42.866V.45ZM1.786,2.236H41.08V40.459H1.786Zm3.8,8.055c0-.15.03-.209.207-.238.679-.03,2.626-.089,4.638-.089,5.983,0,8.959,3.862,8.959,9.52,0,7.868-5.162,10.252-9.136,10.252-1.5,0-3.687-.029-4.483-.057-.116,0-.175-.089-.175-.236V10.288ZM8.8,26.848c.5.032.943.061,1.5.061,3.3,0,5.746-2.329,5.776-7.337.036-4.894-2.5-6.778-5.649-6.778-.62,0-1.12.036-1.62.068v14Zm22.662,2.8c-.207,0-.264-.08-.295-.255-.884-4.921-1.62-8.4-1.947-10.817h-.029c-.382,2.19-1.09,5.817-2.268,10.856-.059.179-.118.227-.264.227H23.768c-.207,0-.264-.029-.321-.205L20.29,15.382c-.029-.12.032-.238.209-.238h2.888a.21.21,0,0,1,.236.161c1.12,6.333,1.59,9.616,1.768,10.913h.118c.207-1.532.825-4.726,2.15-10.856.059-.179.059-.221.236-.221h3.036c.146,0,.175.071.205.22,1.032,5.8,1.709,9.466,1.886,10.942h.089c.286-1.886.679-4.43,1.936-10.974.03-.118.059-.189.207-.189h2.715c.118,0,.207.059.148.207l-3.506,14.1c-.027.148-.054.207-.261.207H31.464Z" transform="translate(1502.198 366.755)" fill="#00e67b"/>
    <path id="Icon_simple-adobeaftereffects" data-name="Icon simple-adobeaftereffects" d="M0,.45V65.209H66.42V.45ZM2.767,3.217H63.652V62.442H2.767Zm16.007,33.9-2.192,8.264c-.047.23-.138.313-.41.313H12.11c-.277,0-.321-.1-.277-.415l7.86-27.489a8.192,8.192,0,0,0,.271-2.269c0-.183.091-.277.23-.277h5.8c.183,0,.277.05.321.277l8.809,29.806c.044.227,0,.36-.23.36H30.329c-.227,0-.36-.083-.407-.266l-2.283-8.308H18.783Zm7.766-4.494c-.775-3.061-2.657-9.769-3.338-13.007h-.044c-.592,3.238-2.092,8.712-3.238,13.007Zm14.834,2.834c.047,3.744,1.827,6.255,6.028,6.255a10.686,10.686,0,0,0,4.511-.858c.185-.089.324-.042.324.185v3.47a.6.6,0,0,1-.277.553A12.324,12.324,0,0,1,46.4,46.116c-7.306,0-10.046-5.388-10.046-11.416,0-6.531,3.382-11.872,9.318-11.872,6.028,0,8.128,5.073,8.128,9.18a13.489,13.489,0,0,1-.235,2.925.384.384,0,0,1-.365.351,39.045,39.045,0,0,1-4.613.183H41.374Zm5.618-3.805a15.308,15.308,0,0,0,2.053-.044c0-.188.047-.346.047-.482,0-1.508-.736-4.273-3.614-4.273-2.648,0-3.791,2.33-4.063,4.793h5.571Z" transform="translate(1390.133 336.343)" fill="#e27de2"/>
  </g>
</svg>
