<svg xmlns="http://www.w3.org/2000/svg" xmlns:xlink="http://www.w3.org/1999/xlink" width="646" height="293.5" viewBox="0 0 646 293.5">
  <defs>
    <filter id="Rectangle_23" x="163.5" y="0" width="106" height="103" filterUnits="userSpaceOnUse">
      <feOffset dy="3" input="SourceAlpha"/>
      <feGaussianBlur stdDeviation="5.5" result="blur"/>
      <feFlood flood-color="#fa00cd"/>
      <feComposite operator="in" in2="blur"/>
    </filter>
    <clipPath id="clip-path">
      <rect width="431" height="60" fill="none"/>
    </clipPath>
    <filter id="Rectangle_11" x="114" y="20.5" width="60" height="60" filterUnits="userSpaceOnUse">
      <feOffset dx="10" dy="9" input="SourceAlpha"/>
      <feGaussianBlur stdDeviation="17" result="blur-2"/>
      <feFlood flood-color="#363636" flood-opacity="0.878" result="color"/>
      <feComposite operator="out" in="SourceGraphic" in2="blur-2"/>
      <feComposite operator="in" in="color"/>
      <feComposite operator="in" in2="SourceGraphic"/>
    </filter>
    <filter id="Rectangle_11-2" x="187" y="20.5" width="60" height="60" filterUnits="userSpaceOnUse">
      <feOffset dx="10" dy="9" input="SourceAlpha"/>
      <feGaussianBlur stdDeviation="17" result="blur-3"/>
      <feFlood flood-color="#363636" flood-opacity="0.878" result="color-2"/>
      <feComposite operator="out" in="SourceGraphic" in2="blur-3"/>
      <feComposite operator="in" in="color-2"/>
      <feComposite operator="in" in2="SourceGraphic"/>
    </filter>
    <filter id="Rectangle_11-3" x="260" y="20.5" width="60" height="60" filterUnits="userSpaceOnUse">
      <feOffset dx="10" dy="9" input="SourceAlpha"/>
      <feGaussianBlur stdDeviation="17" result="blur-4"/>
      <feFlood flood-color="#363636" flood-opacity="0.878" result="color-3"/>
      <feComposite operator="out" in="SourceGraphic" in2="blur-4"/>
      <feComposite operator="in" in="color-3"/>
      <feComposite operator="in" in2="SourceGraphic"/>
    </filter>
    <filter id="Rectangle_11-4" x="333" y="20.5" width="60" height="60" filterUnits="userSpaceOnUse">
      <feOffset dx="10" dy="9" input="SourceAlpha"/>
      <feGaussianBlur stdDeviation="17" result="blur-5"/>
      <feFlood flood-color="#363636" flood-opacity="0.878" result="color-4"/>
      <feComposite operator="out" in="SourceGraphic" in2="blur-5"/>
      <feComposite operator="in" in="color-4"/>
      <feComposite operator="in" in2="SourceGraphic"/>
    </filter>
    <filter id="Rectangle_11-5" x="406" y="20.5" width="60" height="60" filterUnits="userSpaceOnUse">
      <feOffset dx="10" dy="9" input="SourceAlpha"/>
      <feGaussianBlur stdDeviation="17" result="blur-6"/>
      <feFlood flood-color="#363636" flood-opacity="0.878" result="color-5"/>
      <feComposite operator="out" in="SourceGraphic" in2="blur-6"/>
      <feComposite operator="in" in="color-5"/>
      <feComposite operator="in" in2="SourceGraphic"/>
    </filter>
    <filter id="Rectangle_11-6" x="479" y="20.5" width="60" height="60" filterUnits="userSpaceOnUse">
      <feOffset dx="10" dy="9" input="SourceAlpha"/>
      <feGaussianBlur stdDeviation="17" result="blur-7"/>
      <feFlood flood-color="#363636" flood-opacity="0.878" result="color-6"/>
      <feComposite operator="out" in="SourceGraphic" in2="blur-7"/>
      <feComposite operator="in" in="color-6"/>
      <feComposite operator="in" in2="SourceGraphic"/>
    </filter>
    <clipPath id="clip-path-2">
      <rect width="384" height="60" fill="none"/>
    </clipPath>
    <filter id="Rectangle_11-7" x="131" y="91.5" width="60" height="60" filterUnits="userSpaceOnUse">
      <feOffset dx="10" dy="9" input="SourceAlpha"/>
      <feGaussianBlur stdDeviation="17" result="blur-8"/>
      <feFlood flood-color="#363636" flood-opacity="0.878" result="color-7"/>
      <feComposite operator="out" in="SourceGraphic" in2="blur-8"/>
      <feComposite operator="in" in="color-7"/>
      <feComposite operator="in" in2="SourceGraphic"/>
    </filter>
    <filter id="Rectangle_11-8" x="209" y="91.5" width="60" height="60" filterUnits="userSpaceOnUse">
      <feOffset dx="10" dy="9" input="SourceAlpha"/>
      <feGaussianBlur stdDeviation="17" result="blur-9"/>
      <feFlood flood-color="#363636" flood-opacity="0.878" result="color-8"/>
      <feComposite operator="out" in="SourceGraphic" in2="blur-9"/>
      <feComposite operator="in" in="color-8"/>
      <feComposite operator="in" in2="SourceGraphic"/>
    </filter>
    <filter id="Rectangle_11-9" x="287" y="91.5" width="60" height="60" filterUnits="userSpaceOnUse">
      <feOffset dx="10" dy="9" input="SourceAlpha"/>
      <feGaussianBlur stdDeviation="17" result="blur-10"/>
      <feFlood flood-color="#363636" flood-opacity="0.878" result="color-9"/>
      <feComposite operator="out" in="SourceGraphic" in2="blur-10"/>
      <feComposite operator="in" in="color-9"/>
      <feComposite operator="in" in2="SourceGraphic"/>
    </filter>
    <filter id="Rectangle_11-10" x="365" y="91.5" width="60" height="60" filterUnits="userSpaceOnUse">
      <feOffset dx="10" dy="9" input="SourceAlpha"/>
      <feGaussianBlur stdDeviation="17" result="blur-11"/>
      <feFlood flood-color="#363636" flood-opacity="0.878" result="color-10"/>
      <feComposite operator="out" in="SourceGraphic" in2="blur-11"/>
      <feComposite operator="in" in="color-10"/>
      <feComposite operator="in" in2="SourceGraphic"/>
    </filter>
    <filter id="Rectangle_11-11" x="443" y="91.5" width="60" height="60" filterUnits="userSpaceOnUse">
      <feOffset dx="10" dy="9" input="SourceAlpha"/>
      <feGaussianBlur stdDeviation="17" result="blur-12"/>
      <feFlood flood-color="#363636" flood-opacity="0.878" result="color-11"/>
      <feComposite operator="out" in="SourceGraphic" in2="blur-12"/>
      <feComposite operator="in" in="color-11"/>
      <feComposite operator="in" in2="SourceGraphic"/>
    </filter>
    <clipPath id="clip-path-3">
      <rect width="302" height="60" fill="none"/>
    </clipPath>
    <filter id="Rectangle_11-12" x="172" y="162.5" width="60" height="60" filterUnits="userSpaceOnUse">
      <feOffset dx="10" dy="9" input="SourceAlpha"/>
      <feGaussianBlur stdDeviation="17" result="blur-13"/>
      <feFlood flood-color="#363636" flood-opacity="0.878" result="color-12"/>
      <feComposite operator="out" in="SourceGraphic" in2="blur-13"/>
      <feComposite operator="in" in="color-12"/>
      <feComposite operator="in" in2="SourceGraphic"/>
    </filter>
    <filter id="Rectangle_11-13" x="250" y="162.5" width="60" height="60" filterUnits="userSpaceOnUse">
      <feOffset dx="10" dy="9" input="SourceAlpha"/>
      <feGaussianBlur stdDeviation="17" result="blur-14"/>
      <feFlood flood-color="#363636" flood-opacity="0.878" result="color-13"/>
      <feComposite operator="out" in="SourceGraphic" in2="blur-14"/>
      <feComposite operator="in" in="color-13"/>
      <feComposite operator="in" in2="SourceGraphic"/>
    </filter>
    <filter id="Rectangle_11-14" x="328" y="162.5" width="60" height="60" filterUnits="userSpaceOnUse">
      <feOffset dx="10" dy="9" input="SourceAlpha"/>
      <feGaussianBlur stdDeviation="17" result="blur-15"/>
      <feFlood flood-color="#363636" flood-opacity="0.878" result="color-14"/>
      <feComposite operator="out" in="SourceGraphic" in2="blur-15"/>
      <feComposite operator="in" in="color-14"/>
      <feComposite operator="in" in2="SourceGraphic"/>
    </filter>
    <filter id="Rectangle_11-15" x="406" y="162.5" width="60" height="60" filterUnits="userSpaceOnUse">
      <feOffset dx="10" dy="9" input="SourceAlpha"/>
      <feGaussianBlur stdDeviation="17" result="blur-16"/>
      <feFlood flood-color="#363636" flood-opacity="0.878" result="color-15"/>
      <feComposite operator="out" in="SourceGraphic" in2="blur-16"/>
      <feComposite operator="in" in="color-15"/>
      <feComposite operator="in" in2="SourceGraphic"/>
    </filter>
    <filter id="Rectangle_11-16" x="0" y="20.5" width="101" height="60" filterUnits="userSpaceOnUse">
      <feOffset dx="10" dy="9" input="SourceAlpha"/>
      <feGaussianBlur stdDeviation="17" result="blur-17"/>
      <feFlood flood-color="#363636" flood-opacity="0.878" result="color-16"/>
      <feComposite operator="out" in="SourceGraphic" in2="blur-17"/>
      <feComposite operator="in" in="color-16"/>
      <feComposite operator="in" in2="SourceGraphic"/>
    </filter>
    <filter id="Rectangle_11-17" x="0" y="91.5" width="114" height="60" filterUnits="userSpaceOnUse">
      <feOffset dx="10" dy="9" input="SourceAlpha"/>
      <feGaussianBlur stdDeviation="17" result="blur-18"/>
      <feFlood flood-color="#363636" flood-opacity="0.878" result="color-17"/>
      <feComposite operator="out" in="SourceGraphic" in2="blur-18"/>
      <feComposite operator="in" in="color-17"/>
      <feComposite operator="in" in2="SourceGraphic"/>
    </filter>
    <filter id="Rectangle_11-18" x="0" y="162.5" width="158" height="60" filterUnits="userSpaceOnUse">
      <feOffset dx="10" dy="9" input="SourceAlpha"/>
      <feGaussianBlur stdDeviation="17" result="blur-19"/>
      <feFlood flood-color="#363636" flood-opacity="0.878" result="color-18"/>
      <feComposite operator="out" in="SourceGraphic" in2="blur-19"/>
      <feComposite operator="in" in="color-18"/>
      <feComposite operator="in" in2="SourceGraphic"/>
    </filter>
    <filter id="Rectangle_11-19" x="143" y="233.5" width="275" height="60" filterUnits="userSpaceOnUse">
      <feOffset dx="10" dy="9" input="SourceAlpha"/>
      <feGaussianBlur stdDeviation="17" result="blur-20"/>
      <feFlood flood-color="#363636" flood-opacity="0.878" result="color-19"/>
      <feComposite operator="out" in="SourceGraphic" in2="blur-20"/>
      <feComposite operator="in" in="color-19"/>
      <feComposite operator="in" in2="SourceGraphic"/>
    </filter>
    <filter id="Rectangle_11-20" x="475" y="162.5" width="171" height="60" filterUnits="userSpaceOnUse">
      <feOffset dx="10" dy="9" input="SourceAlpha"/>
      <feGaussianBlur stdDeviation="17" result="blur-21"/>
      <feFlood flood-color="#363636" flood-opacity="0.878" result="color-20"/>
      <feComposite operator="out" in="SourceGraphic" in2="blur-21"/>
      <feComposite operator="in" in="color-20"/>
      <feComposite operator="in" in2="SourceGraphic"/>
    </filter>
    <filter id="Rectangle_11-21" x="0" y="233.5" width="60" height="60" filterUnits="userSpaceOnUse">
      <feOffset dx="10" dy="9" input="SourceAlpha"/>
      <feGaussianBlur stdDeviation="17" result="blur-22"/>
      <feFlood flood-color="#363636" flood-opacity="0.878" result="color-21"/>
      <feComposite operator="out" in="SourceGraphic" in2="blur-22"/>
      <feComposite operator="in" in="color-21"/>
      <feComposite operator="in" in2="SourceGraphic"/>
    </filter>
    <filter id="Rectangle_11-22" x="65" y="233.5" width="73" height="60" filterUnits="userSpaceOnUse">
      <feOffset dx="10" dy="9" input="SourceAlpha"/>
      <feGaussianBlur stdDeviation="17" result="blur-23"/>
      <feFlood flood-color="#363636" flood-opacity="0.878" result="color-22"/>
      <feComposite operator="out" in="SourceGraphic" in2="blur-23"/>
      <feComposite operator="in" in="color-22"/>
      <feComposite operator="in" in2="SourceGraphic"/>
    </filter>
    <filter id="Rectangle_11-23" x="423" y="233.5" width="70" height="60" filterUnits="userSpaceOnUse">
      <feOffset dx="10" dy="9" input="SourceAlpha"/>
      <feGaussianBlur stdDeviation="17" result="blur-24"/>
      <feFlood flood-color="#363636" flood-opacity="0.878" result="color-23"/>
      <feComposite operator="out" in="SourceGraphic" in2="blur-24"/>
      <feComposite operator="in" in="color-23"/>
      <feComposite operator="in" in2="SourceGraphic"/>
    </filter>
    <filter id="Rectangle_11-24" x="498" y="267.5" width="70" height="26" filterUnits="userSpaceOnUse">
      <feOffset dx="10" dy="9" input="SourceAlpha"/>
      <feGaussianBlur stdDeviation="17" result="blur-25"/>
      <feFlood flood-color="#363636" flood-opacity="0.878" result="color-24"/>
      <feComposite operator="out" in="SourceGraphic" in2="blur-25"/>
      <feComposite operator="in" in="color-24"/>
      <feComposite operator="in" in2="SourceGraphic"/>
    </filter>
    <filter id="Rectangle_11-25" x="498" y="233.5" width="70" height="26" filterUnits="userSpaceOnUse">
      <feOffset dx="10" dy="9" input="SourceAlpha"/>
      <feGaussianBlur stdDeviation="17" result="blur-26"/>
      <feFlood flood-color="#363636" flood-opacity="0.878" result="color-25"/>
      <feComposite operator="out" in="SourceGraphic" in2="blur-26"/>
      <feComposite operator="in" in="color-25"/>
      <feComposite operator="in" in2="SourceGraphic"/>
    </filter>
    <filter id="Rectangle_11-26" x="576" y="233.5" width="70" height="60" filterUnits="userSpaceOnUse">
      <feOffset dx="10" dy="9" input="SourceAlpha"/>
      <feGaussianBlur stdDeviation="17" result="blur-27"/>
      <feFlood flood-color="#363636" flood-opacity="0.878" result="color-26"/>
      <feComposite operator="out" in="SourceGraphic" in2="blur-27"/>
      <feComposite operator="in" in="color-26"/>
      <feComposite operator="in" in2="SourceGraphic"/>
    </filter>
    <filter id="Rectangle_11-27" x="512" y="91.5" width="134" height="60" filterUnits="userSpaceOnUse">
      <feOffset dx="10" dy="9" input="SourceAlpha"/>
      <feGaussianBlur stdDeviation="17" result="blur-28"/>
      <feFlood flood-color="#363636" flood-opacity="0.878" result="color-27"/>
      <feComposite operator="out" in="SourceGraphic" in2="blur-28"/>
      <feComposite operator="in" in="color-27"/>
      <feComposite operator="in" in2="SourceGraphic"/>
    </filter>
    <filter id="Rectangle_11-28" x="554" y="20.5" width="92" height="60" filterUnits="userSpaceOnUse">
      <feOffset dx="10" dy="9" input="SourceAlpha"/>
      <feGaussianBlur stdDeviation="17" result="blur-29"/>
      <feFlood flood-color="#363636" flood-opacity="0.878" result="color-28"/>
      <feComposite operator="out" in="SourceGraphic" in2="blur-29"/>
      <feComposite operator="in" in="color-28"/>
      <feComposite operator="in" in2="SourceGraphic"/>
    </filter>
  </defs>
  <g id="Group_12" data-name="Group 12" transform="translate(-264 -546.5)">
    <g transform="matrix(1, 0, 0, 1, 264, 546.5)" filter="url(#Rectangle_23)">
      <rect id="Rectangle_23-2" data-name="Rectangle 23" width="73" height="70" rx="18" transform="translate(180 13.5)" fill="#fff"/>
    </g>
    <g id="Group_11" data-name="Group 11" transform="translate(-146 -126)">
      <g id="Group_7" data-name="Group 7" transform="translate(410 693)">
        <g id="Repeat_Grid_1" data-name="Repeat Grid 1" transform="translate(114)" clip-path="url(#clip-path)">
          <g transform="translate(-511 -680)">
            <g id="Component_1_47" data-name="Component 1 – 47" transform="translate(511 680)">
              <g data-type="innerShadowGroup">
                <rect id="Rectangle_11-29" data-name="Rectangle 11" width="60" height="60" rx="11" fill="#565656"/>
                <g transform="matrix(1, 0, 0, 1, -114, -20.5)" filter="url(#Rectangle_11)">
                  <rect id="Rectangle_11-30" data-name="Rectangle 11" width="60" height="60" rx="11" transform="translate(114 20.5)" fill="#fff"/>
                </g>
                <g id="Rectangle_11-31" data-name="Rectangle 11" fill="none" stroke="#464646" stroke-linecap="round" stroke-linejoin="bevel" stroke-width="3">
                  <rect width="60" height="60" rx="11" stroke="none"/>
                  <rect x="1.5" y="1.5" width="57" height="57" rx="9.5" fill="none"/>
                </g>
              </g>
              <text id="Q" transform="translate(19 39)" fill="#fff" font-size="25" font-family="Capriola-Regular, Capriola"><tspan x="0" y="0">Q</tspan></text>
            </g>
          </g>
          <g transform="translate(-438 -680)">
            <g id="Component_1_48" data-name="Component 1 – 48" transform="translate(511 680)">
              <g data-type="innerShadowGroup">
                <rect id="Rectangle_11-32" data-name="Rectangle 11" width="60" height="60" rx="11" fill="#565656"/>
                <g transform="matrix(1, 0, 0, 1, -187, -20.5)" filter="url(#Rectangle_11-2)">
                  <rect id="Rectangle_11-33" data-name="Rectangle 11" width="60" height="60" rx="11" transform="translate(187 20.5)" fill="#fff"/>
                </g>
                <g id="Rectangle_11-34" data-name="Rectangle 11" fill="none" stroke="#464646" stroke-linecap="round" stroke-linejoin="bevel" stroke-width="3">
                  <rect width="60" height="60" rx="11" stroke="none"/>
                  <rect x="1.5" y="1.5" width="57" height="57" rx="9.5" fill="none"/>
                </g>
              </g>
              <text id="W" transform="translate(16 41)" fill="#fff" font-size="25" font-family="Capriola-Regular, Capriola"><tspan x="0" y="0">W</tspan></text>
            </g>
          </g>
          <g transform="translate(-365 -680)">
            <g id="Component_1_49" data-name="Component 1 – 49" transform="translate(511 680)">
              <g data-type="innerShadowGroup">
                <rect id="Rectangle_11-35" data-name="Rectangle 11" width="60" height="60" rx="11" fill="#565656"/>
                <g transform="matrix(1, 0, 0, 1, -260, -20.5)" filter="url(#Rectangle_11-3)">
                  <rect id="Rectangle_11-36" data-name="Rectangle 11" width="60" height="60" rx="11" transform="translate(260 20.5)" fill="#fff"/>
                </g>
                <g id="Rectangle_11-37" data-name="Rectangle 11" fill="none" stroke="#464646" stroke-linecap="round" stroke-linejoin="bevel" stroke-width="3">
                  <rect width="60" height="60" rx="11" stroke="none"/>
                  <rect x="1.5" y="1.5" width="57" height="57" rx="9.5" fill="none"/>
                </g>
              </g>
              <text id="E" transform="translate(22 40)" fill="#fff" font-size="25" font-family="Capriola-Regular, Capriola"><tspan x="0" y="0">E</tspan></text>
            </g>
          </g>
          <g transform="translate(-292 -680)">
            <g id="Component_1_50" data-name="Component 1 – 50" transform="translate(511 680)">
              <g data-type="innerShadowGroup">
                <rect id="Rectangle_11-38" data-name="Rectangle 11" width="60" height="60" rx="11" fill="#565656"/>
                <g transform="matrix(1, 0, 0, 1, -333, -20.5)" filter="url(#Rectangle_11-4)">
                  <rect id="Rectangle_11-39" data-name="Rectangle 11" width="60" height="60" rx="11" transform="translate(333 20.5)" fill="#fff"/>
                </g>
                <g id="Rectangle_11-40" data-name="Rectangle 11" fill="none" stroke="#464646" stroke-linecap="round" stroke-linejoin="bevel" stroke-width="3">
                  <rect width="60" height="60" rx="11" stroke="none"/>
                  <rect x="1.5" y="1.5" width="57" height="57" rx="9.5" fill="none"/>
                </g>
              </g>
              <text id="R" transform="translate(21 40)" fill="#fff" font-size="25" font-family="Capriola-Regular, Capriola"><tspan x="0" y="0">R</tspan></text>
            </g>
          </g>
          <g transform="translate(-219 -680)">
            <g id="Component_1_51" data-name="Component 1 – 51" transform="translate(511 680)">
              <g data-type="innerShadowGroup">
                <rect id="Rectangle_11-41" data-name="Rectangle 11" width="60" height="60" rx="11" fill="#565656"/>
                <g transform="matrix(1, 0, 0, 1, -406, -20.5)" filter="url(#Rectangle_11-5)">
                  <rect id="Rectangle_11-42" data-name="Rectangle 11" width="60" height="60" rx="11" transform="translate(406 20.5)" fill="#fff"/>
                </g>
                <g id="Rectangle_11-43" data-name="Rectangle 11" fill="none" stroke="#464646" stroke-linecap="round" stroke-linejoin="bevel" stroke-width="3">
                  <rect width="60" height="60" rx="11" stroke="none"/>
                  <rect x="1.5" y="1.5" width="57" height="57" rx="9.5" fill="none"/>
                </g>
              </g>
              <text id="T" transform="translate(22 40)" fill="#fff" font-size="25" font-family="Capriola-Regular, Capriola"><tspan x="0" y="0">T</tspan></text>
            </g>
          </g>
          <g transform="translate(-146 -680)">
            <g id="Component_1_52" data-name="Component 1 – 52" transform="translate(511 680)">
              <g data-type="innerShadowGroup">
                <rect id="Rectangle_11-44" data-name="Rectangle 11" width="60" height="60" rx="11" fill="#565656"/>
                <g transform="matrix(1, 0, 0, 1, -479, -20.5)" filter="url(#Rectangle_11-6)">
                  <rect id="Rectangle_11-45" data-name="Rectangle 11" width="60" height="60" rx="11" transform="translate(479 20.5)" fill="#fff"/>
                </g>
                <g id="Rectangle_11-46" data-name="Rectangle 11" fill="none" stroke="#464646" stroke-linecap="round" stroke-linejoin="bevel" stroke-width="3">
                  <rect width="60" height="60" rx="11" stroke="none"/>
                  <rect x="1.5" y="1.5" width="57" height="57" rx="9.5" fill="none"/>
                </g>
              </g>
              <text id="Y" transform="translate(22 40)" fill="#fff" font-size="25" font-family="Capriola-Regular, Capriola"><tspan x="0" y="0">Y</tspan></text>
            </g>
          </g>
        </g>
        <g id="Repeat_Grid_2" data-name="Repeat Grid 2" transform="translate(131 71)" clip-path="url(#clip-path-2)">
          <g transform="translate(-511 -680)">
            <g id="Component_1_59" data-name="Component 1 – 59" transform="translate(511 680)">
              <g data-type="innerShadowGroup">
                <rect id="Rectangle_11-47" data-name="Rectangle 11" width="60" height="60" rx="11" fill="#565656"/>
                <g transform="matrix(1, 0, 0, 1, -131, -91.5)" filter="url(#Rectangle_11-7)">
                  <rect id="Rectangle_11-48" data-name="Rectangle 11" width="60" height="60" rx="11" transform="translate(131 91.5)" fill="#fff"/>
                </g>
                <g id="Rectangle_11-49" data-name="Rectangle 11" fill="none" stroke="#464646" stroke-linecap="round" stroke-linejoin="bevel" stroke-width="3">
                  <rect width="60" height="60" rx="11" stroke="none"/>
                  <rect x="1.5" y="1.5" width="57" height="57" rx="9.5" fill="none"/>
                </g>
              </g>
              <text id="A" transform="translate(19 39)" fill="#fff" font-size="25" font-family="Capriola-Regular, Capriola"><tspan x="0" y="0">A</tspan></text>
            </g>
          </g>
          <g transform="translate(-433 -680)">
            <g id="Component_1_60" data-name="Component 1 – 60" transform="translate(511 680)">
              <g data-type="innerShadowGroup">
                <rect id="Rectangle_11-50" data-name="Rectangle 11" width="60" height="60" rx="11" fill="#565656"/>
                <g transform="matrix(1, 0, 0, 1, -209, -91.5)" filter="url(#Rectangle_11-8)">
                  <rect id="Rectangle_11-51" data-name="Rectangle 11" width="60" height="60" rx="11" transform="translate(209 91.5)" fill="#fff"/>
                </g>
                <g id="Rectangle_11-52" data-name="Rectangle 11" fill="none" stroke="#464646" stroke-linecap="round" stroke-linejoin="bevel" stroke-width="3">
                  <rect width="60" height="60" rx="11" stroke="none"/>
                  <rect x="1.5" y="1.5" width="57" height="57" rx="9.5" fill="none"/>
                </g>
              </g>
              <text id="S" transform="translate(16 41)" fill="#fff" font-size="25" font-family="Capriola-Regular, Capriola"><tspan x="0" y="0">S</tspan></text>
            </g>
          </g>
          <g transform="translate(-355 -680)">
            <g id="Component_1_61" data-name="Component 1 – 61" transform="translate(511 680)">
              <g data-type="innerShadowGroup">
                <rect id="Rectangle_11-53" data-name="Rectangle 11" width="60" height="60" rx="11" fill="#565656"/>
                <g transform="matrix(1, 0, 0, 1, -287, -91.5)" filter="url(#Rectangle_11-9)">
                  <rect id="Rectangle_11-54" data-name="Rectangle 11" width="60" height="60" rx="11" transform="translate(287 91.5)" fill="#fff"/>
                </g>
                <g id="Rectangle_11-55" data-name="Rectangle 11" fill="none" stroke="#464646" stroke-linecap="round" stroke-linejoin="bevel" stroke-width="3">
                  <rect width="60" height="60" rx="11" stroke="none"/>
                  <rect x="1.5" y="1.5" width="57" height="57" rx="9.5" fill="none"/>
                </g>
              </g>
              <text id="D" transform="translate(22 40)" fill="#fff" font-size="25" font-family="Capriola-Regular, Capriola"><tspan x="0" y="0">D</tspan></text>
            </g>
          </g>
          <g transform="translate(-277 -680)">
            <g id="Component_1_62" data-name="Component 1 – 62" transform="translate(511 680)">
              <g data-type="innerShadowGroup">
                <rect id="Rectangle_11-56" data-name="Rectangle 11" width="60" height="60" rx="11" fill="#565656"/>
                <g transform="matrix(1, 0, 0, 1, -365, -91.5)" filter="url(#Rectangle_11-10)">
                  <rect id="Rectangle_11-57" data-name="Rectangle 11" width="60" height="60" rx="11" transform="translate(365 91.5)" fill="#fff"/>
                </g>
                <g id="Rectangle_11-58" data-name="Rectangle 11" fill="none" stroke="#464646" stroke-linecap="round" stroke-linejoin="bevel" stroke-width="3">
                  <rect width="60" height="60" rx="11" stroke="none"/>
                  <rect x="1.5" y="1.5" width="57" height="57" rx="9.5" fill="none"/>
                </g>
              </g>
              <text id="F" transform="translate(21 40)" fill="#fff" font-size="25" font-family="Capriola-Regular, Capriola"><tspan x="0" y="0">F</tspan></text>
            </g>
          </g>
          <g transform="translate(-199 -680)">
            <g id="Component_1_63" data-name="Component 1 – 63" transform="translate(511 680)">
              <g data-type="innerShadowGroup">
                <rect id="Rectangle_11-59" data-name="Rectangle 11" width="60" height="60" rx="11" fill="#565656"/>
                <g transform="matrix(1, 0, 0, 1, -443, -91.5)" filter="url(#Rectangle_11-11)">
                  <rect id="Rectangle_11-60" data-name="Rectangle 11" width="60" height="60" rx="11" transform="translate(443 91.5)" fill="#fff"/>
                </g>
                <g id="Rectangle_11-61" data-name="Rectangle 11" fill="none" stroke="#464646" stroke-linecap="round" stroke-linejoin="bevel" stroke-width="3">
                  <rect width="60" height="60" rx="11" stroke="none"/>
                  <rect x="1.5" y="1.5" width="57" height="57" rx="9.5" fill="none"/>
                </g>
              </g>
              <text id="G" transform="translate(22 40)" fill="#fff" font-size="25" font-family="Capriola-Regular, Capriola"><tspan x="0" y="0">G</tspan></text>
            </g>
          </g>
        </g>
        <g id="Repeat_Grid_3" data-name="Repeat Grid 3" transform="translate(172 142)" clip-path="url(#clip-path-3)">
          <g transform="translate(-511 -680)">
            <g id="Component_1_70" data-name="Component 1 – 70" transform="translate(511 680)">
              <g data-type="innerShadowGroup">
                <rect id="Rectangle_11-62" data-name="Rectangle 11" width="60" height="60" rx="11" fill="#565656"/>
                <g transform="matrix(1, 0, 0, 1, -172, -162.5)" filter="url(#Rectangle_11-12)">
                  <rect id="Rectangle_11-63" data-name="Rectangle 11" width="60" height="60" rx="11" transform="translate(172 162.5)" fill="#fff"/>
                </g>
                <g id="Rectangle_11-64" data-name="Rectangle 11" fill="none" stroke="#464646" stroke-linecap="round" stroke-linejoin="bevel" stroke-width="3">
                  <rect width="60" height="60" rx="11" stroke="none"/>
                  <rect x="1.5" y="1.5" width="57" height="57" rx="9.5" fill="none"/>
                </g>
              </g>
              <text id="Z" transform="translate(23 39)" fill="#fff" font-size="25" font-family="Capriola-Regular, Capriola"><tspan x="0" y="0">Z</tspan></text>
            </g>
          </g>
          <g transform="translate(-433 -680)">
            <g id="Component_1_71" data-name="Component 1 – 71" transform="translate(511 680)">
              <g data-type="innerShadowGroup">
                <rect id="Rectangle_11-65" data-name="Rectangle 11" width="60" height="60" rx="11" fill="#565656"/>
                <g transform="matrix(1, 0, 0, 1, -250, -162.5)" filter="url(#Rectangle_11-13)">
                  <rect id="Rectangle_11-66" data-name="Rectangle 11" width="60" height="60" rx="11" transform="translate(250 162.5)" fill="#fff"/>
                </g>
                <g id="Rectangle_11-67" data-name="Rectangle 11" fill="none" stroke="#464646" stroke-linecap="round" stroke-linejoin="bevel" stroke-width="3">
                  <rect width="60" height="60" rx="11" stroke="none"/>
                  <rect x="1.5" y="1.5" width="57" height="57" rx="9.5" fill="none"/>
                </g>
              </g>
              <text id="X" transform="translate(22 39)" fill="#fff" font-size="25" font-family="Capriola-Regular, Capriola"><tspan x="0" y="0">X</tspan></text>
            </g>
          </g>
          <g transform="translate(-355 -680)">
            <g id="Component_1_72" data-name="Component 1 – 72" transform="translate(511 680)">
              <g data-type="innerShadowGroup">
                <rect id="Rectangle_11-68" data-name="Rectangle 11" width="60" height="60" rx="11" fill="#565656"/>
                <g transform="matrix(1, 0, 0, 1, -328, -162.5)" filter="url(#Rectangle_11-14)">
                  <rect id="Rectangle_11-69" data-name="Rectangle 11" width="60" height="60" rx="11" transform="translate(328 162.5)" fill="#fff"/>
                </g>
                <g id="Rectangle_11-70" data-name="Rectangle 11" fill="none" stroke="#464646" stroke-linecap="round" stroke-linejoin="bevel" stroke-width="3">
                  <rect width="60" height="60" rx="11" stroke="none"/>
                  <rect x="1.5" y="1.5" width="57" height="57" rx="9.5" fill="none"/>
                </g>
              </g>
              <text id="C" transform="translate(21 39)" fill="#fff" font-size="25" font-family="Capriola-Regular, Capriola"><tspan x="0" y="0">C</tspan></text>
            </g>
          </g>
          <g transform="translate(-277 -680)">
            <g id="Component_1_73" data-name="Component 1 – 73" transform="translate(511 680)">
              <g data-type="innerShadowGroup">
                <rect id="Rectangle_11-71" data-name="Rectangle 11" width="60" height="60" rx="11" fill="#565656"/>
                <g transform="matrix(1, 0, 0, 1, -406, -162.5)" filter="url(#Rectangle_11-15)">
                  <rect id="Rectangle_11-72" data-name="Rectangle 11" width="60" height="60" rx="11" transform="translate(406 162.5)" fill="#fff"/>
                </g>
                <g id="Rectangle_11-73" data-name="Rectangle 11" fill="none" stroke="#464646" stroke-linecap="round" stroke-linejoin="bevel" stroke-width="3">
                  <rect width="60" height="60" rx="11" stroke="none"/>
                  <rect x="1.5" y="1.5" width="57" height="57" rx="9.5" fill="none"/>
                </g>
              </g>
              <text id="V" transform="translate(22 39)" fill="#fff" font-size="25" font-family="Capriola-Regular, Capriola"><tspan x="0" y="0">V</tspan></text>
            </g>
          </g>
        </g>
        <g id="Component_1_80" data-name="Component 1 – 80">
          <g data-type="innerShadowGroup">
            <rect id="Rectangle_11-74" data-name="Rectangle 11" width="101" height="60" rx="11" fill="#565656"/>
            <g transform="matrix(1, 0, 0, 1, 0, -20.5)" filter="url(#Rectangle_11-16)">
              <rect id="Rectangle_11-75" data-name="Rectangle 11" width="101" height="60" rx="11" transform="translate(0 20.5)" fill="#fff"/>
            </g>
            <g id="Rectangle_11-76" data-name="Rectangle 11" fill="none" stroke="#464646" stroke-linecap="round" stroke-linejoin="bevel" stroke-width="3">
              <rect width="101" height="60" rx="11" stroke="none"/>
              <rect x="1.5" y="1.5" width="98" height="57" rx="9.5" fill="none"/>
            </g>
          </g>
          <text id="Tab" transform="translate(28 40)" fill="#fff" font-size="25" font-family="Capriola-Regular, Capriola"><tspan x="0" y="0">Tab</tspan></text>
        </g>
        <g id="Component_1_81" data-name="Component 1 – 81" transform="translate(0 71)">
          <g data-type="innerShadowGroup">
            <rect id="Rectangle_11-77" data-name="Rectangle 11" width="114" height="60" rx="11" fill="#565656"/>
            <g transform="matrix(1, 0, 0, 1, 0, -91.5)" filter="url(#Rectangle_11-17)">
              <rect id="Rectangle_11-78" data-name="Rectangle 11" width="114" height="60" rx="11" transform="translate(0 91.5)" fill="#fff"/>
            </g>
            <g id="Rectangle_11-79" data-name="Rectangle 11" fill="none" stroke="#464646" stroke-linecap="round" stroke-linejoin="bevel" stroke-width="3">
              <rect width="114" height="60" rx="11" stroke="none"/>
              <rect x="1.5" y="1.5" width="111" height="57" rx="9.5" fill="none"/>
            </g>
          </g>
          <text id="Caps_Lock" data-name="Caps Lock" transform="translate(6 37)" fill="#fff" font-size="20" font-family="Capriola-Regular, Capriola"><tspan x="0" y="0">Caps Lock</tspan></text>
        </g>
        <g id="Component_1_82" data-name="Component 1 – 82" transform="translate(0 142)">
          <g data-type="innerShadowGroup">
            <rect id="Rectangle_11-80" data-name="Rectangle 11" width="158" height="60" rx="11" fill="#565656"/>
            <g transform="matrix(1, 0, 0, 1, 0, -162.5)" filter="url(#Rectangle_11-18)">
              <rect id="Rectangle_11-81" data-name="Rectangle 11" width="158" height="60" rx="11" transform="translate(0 162.5)" fill="#fff"/>
            </g>
            <g id="Rectangle_11-82" data-name="Rectangle 11" fill="none" stroke="#464646" stroke-linecap="round" stroke-linejoin="bevel" stroke-width="3">
              <rect width="158" height="60" rx="11" stroke="none"/>
              <rect x="1.5" y="1.5" width="155" height="57" rx="9.5" fill="none"/>
            </g>
          </g>
          <text id="Shift" transform="translate(49 39)" fill="#fff" font-size="25" font-family="Capriola-Regular, Capriola"><tspan x="0" y="0">Shift</tspan></text>
        </g>
        <g id="Component_1_83" data-name="Component 1 – 83" transform="translate(143 213)">
          <g data-type="innerShadowGroup">
            <rect id="Rectangle_11-83" data-name="Rectangle 11" width="275" height="60" rx="11" fill="#565656"/>
            <g transform="matrix(1, 0, 0, 1, -143, -233.5)" filter="url(#Rectangle_11-19)">
              <rect id="Rectangle_11-84" data-name="Rectangle 11" width="275" height="60" rx="11" transform="translate(143 233.5)" fill="#fff"/>
            </g>
            <g id="Rectangle_11-85" data-name="Rectangle 11" fill="none" stroke="#464646" stroke-linecap="round" stroke-linejoin="bevel" stroke-width="3">
              <rect width="275" height="60" rx="11" stroke="none"/>
              <rect x="1.5" y="1.5" width="272" height="57" rx="9.5" fill="none"/>
            </g>
          </g>
        </g>
        <g id="Component_1_84" data-name="Component 1 – 84" transform="translate(475 142)">
          <g data-type="innerShadowGroup">
            <rect id="Rectangle_11-86" data-name="Rectangle 11" width="171" height="60" rx="11" fill="#565656"/>
            <g transform="matrix(1, 0, 0, 1, -475, -162.5)" filter="url(#Rectangle_11-20)">
              <rect id="Rectangle_11-87" data-name="Rectangle 11" width="171" height="60" rx="11" transform="translate(475 162.5)" fill="#fff"/>
            </g>
            <g id="Rectangle_11-88" data-name="Rectangle 11" fill="none" stroke="#464646" stroke-linecap="round" stroke-linejoin="bevel" stroke-width="3">
              <rect width="171" height="60" rx="11" stroke="none"/>
              <rect x="1.5" y="1.5" width="168" height="57" rx="9.5" fill="none"/>
            </g>
          </g>
          <text id="Shift-2" data-name="Shift" transform="translate(56 39)" fill="#fff" font-size="25" font-family="Capriola-Regular, Capriola"><tspan x="0" y="0">Shift</tspan></text>
        </g>
        <g id="Component_1_85" data-name="Component 1 – 85" transform="translate(0 213)">
          <g data-type="innerShadowGroup">
            <rect id="Rectangle_11-89" data-name="Rectangle 11" width="60" height="60" rx="11" fill="#565656"/>
            <g transform="matrix(1, 0, 0, 1, 0, -233.5)" filter="url(#Rectangle_11-21)">
              <rect id="Rectangle_11-90" data-name="Rectangle 11" width="60" height="60" rx="11" transform="translate(0 233.5)" fill="#fff"/>
            </g>
            <g id="Rectangle_11-91" data-name="Rectangle 11" fill="none" stroke="#464646" stroke-linecap="round" stroke-linejoin="bevel" stroke-width="3">
              <rect width="60" height="60" rx="11" stroke="none"/>
              <rect x="1.5" y="1.5" width="57" height="57" rx="9.5" fill="none"/>
            </g>
          </g>
          <text id="Ctrl" transform="translate(11 37)" fill="#fff" font-size="21" font-family="Capriola-Regular, Capriola"><tspan x="0" y="0">Ctrl</tspan></text>
        </g>
        <g id="Component_1_87" data-name="Component 1 – 87" transform="translate(65 213)">
          <g data-type="innerShadowGroup">
            <rect id="Rectangle_11-92" data-name="Rectangle 11" width="73" height="60" rx="11" fill="#565656"/>
            <g transform="matrix(1, 0, 0, 1, -65, -233.5)" filter="url(#Rectangle_11-22)">
              <rect id="Rectangle_11-93" data-name="Rectangle 11" width="73" height="60" rx="11" transform="translate(65 233.5)" fill="#fff"/>
            </g>
            <g id="Rectangle_11-94" data-name="Rectangle 11" fill="none" stroke="#464646" stroke-linecap="round" stroke-linejoin="bevel" stroke-width="3">
              <rect width="73" height="60" rx="11" stroke="none"/>
              <rect x="1.5" y="1.5" width="70" height="57" rx="9.5" fill="none"/>
            </g>
          </g>
          <g id="Icon_ionic-logo-windows" data-name="Icon ionic-logo-windows" transform="translate(20.75 14.25)">
            <path id="Path_2" data-name="Path 2" d="M33.75,18.633H16.313V31.219L33.75,33.75V18.633Z" transform="translate(-2.25 -2.25)" fill="#373737"/>
            <path id="Path_3" data-name="Path 3" d="M15.188,18.633H2.25V29.18l12.938,1.877V18.633Z" transform="translate(-2.25 -2.25)" fill="#373737"/>
            <path id="Path_4" data-name="Path 4" d="M33.75,2.25,16.313,4.739V17.508H33.75V2.25Z" transform="translate(-2.25 -2.25)" fill="#373737"/>
            <path id="Path_5" data-name="Path 5" d="M15.188,4.9,2.25,6.75V17.508H15.188V4.9Z" transform="translate(-2.25 -2.25)" fill="#373737"/>
          </g>
        </g>
        <g id="Component_1_91" data-name="Component 1 – 91" transform="translate(423 213)">
          <g data-type="innerShadowGroup">
            <rect id="Rectangle_11-95" data-name="Rectangle 11" width="70" height="60" rx="5" fill="#565656"/>
            <g transform="matrix(1, 0, 0, 1, -423, -233.5)" filter="url(#Rectangle_11-23)">
              <rect id="Rectangle_11-96" data-name="Rectangle 11" width="70" height="60" rx="5" transform="translate(423 233.5)" fill="#fff"/>
            </g>
            <g id="Rectangle_11-97" data-name="Rectangle 11" fill="none" stroke="#464646" stroke-linecap="round" stroke-linejoin="bevel" stroke-width="3">
              <rect width="70" height="60" rx="5" stroke="none"/>
              <rect x="1.5" y="1.5" width="67" height="57" rx="3.5" fill="none"/>
            </g>
          </g>
          <path id="Icon_awesome-arrow-left" data-name="Icon awesome-arrow-left" d="M15.236,26.756,13.922,28.07a1.414,1.414,0,0,1-2.006,0l-11.5-11.5a1.414,1.414,0,0,1,0-2.006l11.5-11.5a1.414,1.414,0,0,1,2.006,0l1.314,1.314a1.422,1.422,0,0,1-.024,2.03L8.082,13.2H25.087a1.417,1.417,0,0,1,1.42,1.42v1.893a1.417,1.417,0,0,1-1.42,1.42H8.082l7.13,6.793A1.411,1.411,0,0,1,15.236,26.756Z" transform="translate(21.748 14.433)" fill="#fff"/>
        </g>
        <g id="Component_1_92" data-name="Component 1 – 92" transform="translate(498 247)">
          <g data-type="innerShadowGroup">
            <rect id="Rectangle_11-98" data-name="Rectangle 11" width="70" height="26" rx="5" fill="#565656"/>
            <g transform="matrix(1, 0, 0, 1, -498, -267.5)" filter="url(#Rectangle_11-24)">
              <rect id="Rectangle_11-99" data-name="Rectangle 11" width="70" height="26" rx="5" transform="translate(498 267.5)" fill="#fff"/>
            </g>
            <g id="Rectangle_11-100" data-name="Rectangle 11" fill="none" stroke="#464646" stroke-linecap="round" stroke-linejoin="bevel" stroke-width="3">
              <rect width="70" height="26" rx="5" stroke="none"/>
              <rect x="1.5" y="1.5" width="67" height="23" rx="3.5" fill="none"/>
            </g>
          </g>
          <path id="Icon_awesome-arrow-down" data-name="Icon awesome-arrow-down" d="M11.474,7.429l.6.6a.65.65,0,0,1,0,.922L6.8,14.238a.65.65,0,0,1-.922,0L.589,8.954a.65.65,0,0,1,0-.922l.6-.6a.653.653,0,0,1,.932.011l3.121,3.276V2.9A.651.651,0,0,1,5.9,2.25h.87A.651.651,0,0,1,7.42,2.9v7.813L10.541,7.44a.648.648,0,0,1,.932-.011Z" transform="translate(28.667 4.66)" fill="#fff"/>
        </g>
        <g id="Component_1_93" data-name="Component 1 – 93" transform="translate(498 213)">
          <g data-type="innerShadowGroup">
            <rect id="Rectangle_11-101" data-name="Rectangle 11" width="70" height="26" rx="5" fill="#565656"/>
            <g transform="matrix(1, 0, 0, 1, -498, -233.5)" filter="url(#Rectangle_11-25)">
              <rect id="Rectangle_11-102" data-name="Rectangle 11" width="70" height="26" rx="5" transform="translate(498 233.5)" fill="#fff"/>
            </g>
            <g id="Rectangle_11-103" data-name="Rectangle 11" fill="none" stroke="#464646" stroke-linecap="round" stroke-linejoin="bevel" stroke-width="3">
              <rect width="70" height="26" rx="5" stroke="none"/>
              <rect x="1.5" y="1.5" width="67" height="23" rx="3.5" fill="none"/>
            </g>
          </g>
          <path id="Icon_awesome-arrow-right" data-name="Icon awesome-arrow-right" d="M5.208.8,5.815.193a.653.653,0,0,1,.927,0L12.057,5.5a.653.653,0,0,1,0,.927L6.742,11.747a.653.653,0,0,1-.927,0l-.607-.607a.657.657,0,0,1,.011-.938L8.514,7.063H.656A.655.655,0,0,1,0,6.407V5.532a.655.655,0,0,1,.656-.656H8.514L5.219,1.737A.652.652,0,0,1,5.208.8Z" transform="translate(29.03 19.125) rotate(-90)" fill="#fff"/>
        </g>
        <g id="Component_1_94" data-name="Component 1 – 94" transform="translate(576 213)">
          <g data-type="innerShadowGroup">
            <rect id="Rectangle_11-104" data-name="Rectangle 11" width="70" height="60" rx="5" fill="#565656"/>
            <g transform="matrix(1, 0, 0, 1, -576, -233.5)" filter="url(#Rectangle_11-26)">
              <rect id="Rectangle_11-105" data-name="Rectangle 11" width="70" height="60" rx="5" transform="translate(576 233.5)" fill="#fff"/>
            </g>
            <g id="Rectangle_11-106" data-name="Rectangle 11" fill="none" stroke="#464646" stroke-linecap="round" stroke-linejoin="bevel" stroke-width="3">
              <rect width="70" height="60" rx="5" stroke="none"/>
              <rect x="1.5" y="1.5" width="67" height="57" rx="3.5" fill="none"/>
            </g>
          </g>
          <path id="Icon_awesome-arrow-right-2" data-name="Icon awesome-arrow-right" d="M11.268,4.377l1.313-1.313a1.414,1.414,0,0,1,2.005,0l11.5,11.492a1.414,1.414,0,0,1,0,2.005l-11.5,11.5a1.414,1.414,0,0,1-2.005,0l-1.313-1.313a1.421,1.421,0,0,1,.024-2.029l7.127-6.79h-17A1.416,1.416,0,0,1,0,16.508V14.616A1.416,1.416,0,0,1,1.42,13.2h17l-7.127-6.79A1.411,1.411,0,0,1,11.268,4.377Z" transform="translate(21.749 14.438)" fill="#fff"/>
        </g>
      </g>
      <g id="Component_1_95" data-name="Component 1 – 95" transform="translate(922 764)">
        <g data-type="innerShadowGroup">
          <rect id="Rectangle_11-107" data-name="Rectangle 11" width="134" height="60" rx="11" fill="#565656"/>
          <g transform="matrix(1, 0, 0, 1, -512, -91.5)" filter="url(#Rectangle_11-27)">
            <rect id="Rectangle_11-108" data-name="Rectangle 11" width="134" height="60" rx="11" transform="translate(512 91.5)" fill="#fff"/>
          </g>
          <g id="Rectangle_11-109" data-name="Rectangle 11" fill="none" stroke="#464646" stroke-linecap="round" stroke-linejoin="bevel" stroke-width="3">
            <rect width="134" height="60" rx="11" stroke="none"/>
            <rect x="1.5" y="1.5" width="131" height="57" rx="9.5" fill="none"/>
          </g>
        </g>
        <text id="Enter" transform="translate(47 39)" fill="#fff" font-size="25" font-family="Capriola-Regular, Capriola"><tspan x="0" y="0">Enter</tspan></text>
        <path id="Icon_material-subdirectory-arrow-left" data-name="Icon material-subdirectory-arrow-left" d="M15.772,12.893l1.958,1.958L12.78,19.786H25.422V6h2.757V22.544H12.78l4.949,4.935-1.958,1.958L7.5,21.165Z" transform="translate(11.41 14.795)" fill="#fff"/>
      </g>
      <g id="Component_1_96" data-name="Component 1 – 96" transform="translate(964 693)">
        <g data-type="innerShadowGroup">
          <rect id="Rectangle_11-110" data-name="Rectangle 11" width="92" height="60" rx="11" fill="#565656"/>
          <g transform="matrix(1, 0, 0, 1, -554, -20.5)" filter="url(#Rectangle_11-28)">
            <rect id="Rectangle_11-111" data-name="Rectangle 11" width="92" height="60" rx="11" transform="translate(554 20.5)" fill="#fff"/>
          </g>
          <g id="Rectangle_11-112" data-name="Rectangle 11" fill="none" stroke="#464646" stroke-linecap="round" stroke-linejoin="bevel" stroke-width="3">
            <rect width="92" height="60" rx="11" stroke="none"/>
            <rect x="1.5" y="1.5" width="89" height="57" rx="9.5" fill="none"/>
          </g>
        </g>
        <text id="_" data-name="|
   \" transform="translate(35 25)" fill="#fff" font-size="19" font-family="Capriola-Regular, Capriola"><tspan x="0" y="0">|</tspan><tspan x="0" y="23" xml:space="preserve">   \</tspan></text>
      </g>
    </g>
  </g>
</svg>
