<svg xmlns="http://www.w3.org/2000/svg" width="42.866" height="41.795" viewBox="0 0 42.866 41.795">
  <path id="Icon_simple-adobedreamweaver" data-name="Icon simple-adobedreamweaver" d="M0,.45V42.245H42.866V.45ZM1.786,2.236H41.08V40.459H1.786Zm3.8,8.055c0-.15.03-.209.207-.238.679-.03,2.626-.089,4.638-.089,5.983,0,8.959,3.862,8.959,9.52,0,7.868-5.162,10.252-9.136,10.252-1.5,0-3.687-.029-4.483-.057-.116,0-.175-.089-.175-.236V10.288ZM8.8,26.848c.5.032.943.061,1.5.061,3.3,0,5.746-2.329,5.776-7.337.036-4.894-2.5-6.778-5.649-6.778-.62,0-1.12.036-1.62.068v14Zm22.662,2.8c-.207,0-.264-.08-.295-.255-.884-4.921-1.62-8.4-1.947-10.817h-.029c-.382,2.19-1.09,5.817-2.268,10.856-.059.179-.118.227-.264.227H23.768c-.207,0-.264-.029-.321-.205L20.29,15.382c-.029-.12.032-.238.209-.238h2.888a.21.21,0,0,1,.236.161c1.12,6.333,1.59,9.616,1.768,10.913h.118c.207-1.532.825-4.726,2.15-10.856.059-.179.059-.221.236-.221h3.036c.146,0,.175.071.205.22,1.032,5.8,1.709,9.466,1.886,10.942h.089c.286-1.886.679-4.43,1.936-10.974.03-.118.059-.189.207-.189h2.715c.118,0,.207.059.148.207l-3.506,14.1c-.027.148-.054.207-.261.207H31.464Z" transform="translate(0 -0.45)" fill="#00e67b"/>
</svg>
