<svg xmlns="http://www.w3.org/2000/svg" width="136.969" height="133.544" viewBox="0 0 136.969 133.544">
  <path id="Icon_simple-adobeillustrator" data-name="Icon simple-adobeillustrator" d="M0,.45V133.994H136.969V.45ZM5.707,6.157H131.262v122.13H5.707Zm41.8,69.911-4.52,17.11c-.1.474-.285.582-.845.582H33.769c-.571,0-.656-.188-.571-.845L49.406,36.159a17.6,17.6,0,0,0,.559-4.754c0-.377.188-.571.474-.571H62.4c.377,0,.571.1.662.571l18.177,61.6c.1.474,0,.753-.474.753H71.349c-.474,0-.753-.114-.845-.491L65.8,76.062h-18.3Zm15.911-9.274c-1.6-6.312-5.365-20.134-6.78-26.823h-.1c-1.221,6.677-4.235,17.977-6.592,26.823ZM89.1,35.075a5.838,5.838,0,1,1,11.677,0c0,3.767-2.454,5.838-5.935,5.838-3.424,0-5.764-2.072-5.764-5.838Zm.639,12.978c0-.457.188-.628.662-.628h8.96c.5,0,.685.188.685.662V93.144c0,.474-.091.662-.656.662H90.548c-.571,0-.759-.285-.759-.742V48.047Z" transform="translate(0 -0.45)" fill="#ff6c0a"/>
</svg>
