<svg xmlns="http://www.w3.org/2000/svg" width="33.714" height="29.161" viewBox="0 0 33.714 29.161">
  <g id="Icon_ionic-ios-cut" data-name="Icon ionic-ios-cut" transform="translate(33.714) rotate(90)">
    <path id="Path_18" data-name="Path 18" d="M18.8,18.563c2.066-2.674,6.522-9.034,7.308-10.971a9.637,9.637,0,0,0,.843-3.743A4.105,4.105,0,0,0,25.466.559,2.512,2.512,0,0,0,23.846,0L14.576,12.445l-.81,1.086-.235.316-.008.008-1.175,1.6c-.008.008-.016.024-.024.032-.041.065-.608.883-1.232,1.839-.243.373-.494.77-.729,1.142-.284.454-.535.891-.713,1.232-.292.575-.591,1.167-.867,1.742-.3.608-.583,1.183-.843,1.677a4.739,4.739,0,0,0-2.779-.9,4.881,4.881,0,0,0-3.711,1.75,6.215,6.215,0,0,0,0,7.981A4.893,4.893,0,0,0,5.161,33.7a4.777,4.777,0,0,0,3.176-1.215A5.732,5.732,0,0,0,10.1,29.614a23.584,23.584,0,0,1,2.115-4.643,7.282,7.282,0,0,1,2.4-2.252l1.094-.786A16.91,16.91,0,0,0,18.8,18.563ZM5.177,30.222a2.126,2.126,0,0,1-1.945-2.269,2.126,2.126,0,0,1,1.945-2.269,2.126,2.126,0,0,1,1.945,2.269A2.127,2.127,0,0,1,5.177,30.222Zm9.415-10.768a1.3,1.3,0,1,1,1.3-1.3A1.3,1.3,0,0,1,14.593,19.454Z" transform="translate(0 0.008)" fill="#fff"/>
    <path id="Path_19" data-name="Path 19" d="M7.163,17.21a1.3,1.3,0,0,0,.2.219c.138-.227.292-.462.438-.7L11.571,11.4,3.063,0a2.458,2.458,0,0,0-1.5.316A4.476,4.476,0,0,0,0,3.849,9.755,9.755,0,0,0,.843,7.592C1.54,9.294,4.295,13.28,7.163,17.21Z" transform="translate(2.195 0)" fill="#fff"/>
    <path id="Path_20" data-name="Path 20" d="M8.3,2.463a4.739,4.739,0,0,0-2.779.9c-.259-.494-.543-1.07-.843-1.677C4.4,1.126,4.116.551,3.832,0L2.949,1.126,0,3.808A6.975,6.975,0,0,1,1.24,5.226,23.366,23.366,0,0,1,3.346,9.869a5.732,5.732,0,0,0,1.766,2.868,4.808,4.808,0,0,0,3.176,1.215,5.492,5.492,0,0,0,5.186-5.745A5.486,5.486,0,0,0,8.3,2.463Zm.008,8.005A2.126,2.126,0,0,1,6.36,8.2,2.126,2.126,0,0,1,8.305,5.931,2.126,2.126,0,0,1,10.25,8.2,2.121,2.121,0,0,1,8.305,10.468Z" transform="translate(15.686 19.762)" fill="#fff"/>
  </g>
</svg>
