<svg xmlns="http://www.w3.org/2000/svg" width="246.154" height="240" viewBox="0 0 246.154 240">
  <path id="Icon_simple-adobephotoshop" data-name="Icon simple-adobephotoshop" d="M0,.45v240H246.154V.45ZM10.256,10.706H235.9V230.194H10.256ZM59.487,56.655c0-.687,1.436-1.19,2.3-1.19,6.605-.338,16.287-.513,26.441-.513,28.431,0,39.487,15.59,39.487,35.549,0,26.051-18.892,37.231-42.072,37.231-3.9,0-5.231-.174-7.949-.174v39.405c0,.851-.338,1.19-1.179,1.19H60.677c-.851,0-1.179-.308-1.179-1.159V56.655Zm18.205,54.482c2.359.164,4.226.164,8.308.164,12,0,23.282-4.226,23.282-20.472,0-13.026-8.062-19.631-21.764-19.631-4.062,0-7.949.164-9.815.338v39.631Zm88.277-12.185c-8.123,0-10.831,4.062-10.831,7.446,0,3.723,1.846,6.256,12.687,11.846,16.082,7.795,21.149,15.231,21.149,26.226,0,16.41-12.513,25.231-29.436,25.231-8.985,0-16.615-1.877-21.026-4.41-.667-.338-.82-.841-.82-1.692V148.553c0-1.026.492-1.364,1.169-.862a37.783,37.783,0,0,0,20.636,6.092c8.123,0,11.508-3.385,11.508-7.959,0-3.723-2.359-6.944-12.687-12.359-14.564-6.974-20.656-14.051-20.656-25.918,0-13.2,10.318-24.205,28.256-24.205,8.821,0,15.015,1.354,18.4,2.872a2.236,2.236,0,0,1,1.026,2.031V102.3c0,.851-.513,1.364-1.538,1.026-4.554-2.708-11.282-4.41-17.877-4.41Z" transform="translate(0 -0.45)" fill="#007ddb"/>
</svg>
