<svg xmlns="http://www.w3.org/2000/svg" width="35.888" height="35.888" viewBox="0 0 35.888 35.888">
  <path id="Icon_awesome-crop-alt" data-name="Icon awesome-crop-alt" d="M32.3,23.3H29.652V6.354a2.118,2.118,0,0,0-2.118-2.118H12.708V10.59H23.3V32.3a1.589,1.589,0,0,0,1.589,1.589h3.177A1.589,1.589,0,0,0,29.652,32.3V29.652H32.3a1.589,1.589,0,0,0,1.589-1.589V24.887A1.589,1.589,0,0,0,32.3,23.3ZM10.59,1.589A1.589,1.589,0,0,0,9,0H5.825A1.589,1.589,0,0,0,4.236,1.589V4.236H1.589A1.589,1.589,0,0,0,0,5.825V9A1.589,1.589,0,0,0,1.589,10.59H4.236V27.534a2.118,2.118,0,0,0,2.118,2.118H21.18V23.3H10.59Z" transform="translate(1 1)" fill="none" stroke="#fff" stroke-width="2"/>
</svg>
