<svg xmlns="http://www.w3.org/2000/svg" width="80.353" height="78.344" viewBox="0 0 80.353 78.344">
  <path id="Icon_simple-adobeindesign" data-name="Icon simple-adobeindesign" d="M0,.45V78.794H80.353V.45ZM3.348,3.8H77V75.446H3.348Zm26.031,50.95c0,.335-.057.442-.442.442H23.794c-.335,0-.442-.167-.442-.442V18.8c0-.335.167-.442.442-.442h5.2c.275,0,.385.11.385.388v36ZM35.3,41.785c0-8.012,5.283-14.253,13.734-14.253.716,0,1.1,0,1.768.05V18.7a.323.323,0,0,1,.335-.335h5.441c.281,0,.335.114.335.281V49.964a24.939,24.939,0,0,0,.167,3.361c0,.221-.067.278-.291.388a20.3,20.3,0,0,1-8.785,1.992c-7.409,0-12.712-4.587-12.712-13.921ZM50.806,33a4.962,4.962,0,0,0-1.989-.335c-4.3,0-7.322,3.315-7.322,8.839,0,6.3,3.073,8.839,6.94,8.839a6.479,6.479,0,0,0,2.377-.385V33Z" transform="translate(0 -0.45)" fill="#007ddb"/>
</svg>
