<svg xmlns="http://www.w3.org/2000/svg" width="25.974" height="25.974" viewBox="0 0 25.974 25.974">
  <path id="Icon_awesome-crop-alt" data-name="Icon awesome-crop-alt" d="M22.85,16.482H20.977V4.5a1.5,1.5,0,0,0-1.5-1.5H8.99v4.5h7.492V22.85a1.124,1.124,0,0,0,1.124,1.124h2.248a1.124,1.124,0,0,0,1.124-1.124V20.977H22.85a1.124,1.124,0,0,0,1.124-1.124V17.606A1.124,1.124,0,0,0,22.85,16.482ZM7.492,1.124A1.124,1.124,0,0,0,6.368,0H4.121A1.124,1.124,0,0,0,3,1.124V3H1.124A1.124,1.124,0,0,0,0,4.121V6.368A1.124,1.124,0,0,0,1.124,7.492H3V19.479a1.5,1.5,0,0,0,1.5,1.5H14.984v-4.5H7.492Z" transform="translate(1 24.974) rotate(-90)" fill="none" stroke="#e373f7" stroke-width="2"/>
</svg>
