<svg xmlns="http://www.w3.org/2000/svg" width="66.42" height="64.759" viewBox="0 0 66.42 64.759">
  <path id="Icon_simple-adobeaftereffects" data-name="Icon simple-adobeaftereffects" d="M0,.45V65.209H66.42V.45ZM2.767,3.217H63.652V62.442H2.767Zm16.007,33.9-2.192,8.264c-.047.23-.138.313-.41.313H12.11c-.277,0-.321-.1-.277-.415l7.86-27.489a8.192,8.192,0,0,0,.271-2.269c0-.183.091-.277.23-.277h5.8c.183,0,.277.05.321.277l8.809,29.806c.044.227,0,.36-.23.36H30.329c-.227,0-.36-.083-.407-.266l-2.283-8.308H18.783Zm7.766-4.494c-.775-3.061-2.657-9.769-3.338-13.007h-.044c-.592,3.238-2.092,8.712-3.238,13.007Zm14.834,2.834c.047,3.744,1.827,6.255,6.028,6.255a10.686,10.686,0,0,0,4.511-.858c.185-.089.324-.042.324.185v3.47a.6.6,0,0,1-.277.553A12.324,12.324,0,0,1,46.4,46.116c-7.306,0-10.046-5.388-10.046-11.416,0-6.531,3.382-11.872,9.318-11.872,6.028,0,8.128,5.073,8.128,9.18a13.489,13.489,0,0,1-.235,2.925.384.384,0,0,1-.365.351,39.045,39.045,0,0,1-4.613.183H41.374Zm5.618-3.805a15.308,15.308,0,0,0,2.053-.044c0-.188.047-.346.047-.482,0-1.508-.736-4.273-3.614-4.273-2.648,0-3.791,2.33-4.063,4.793h5.571Z" transform="translate(0 -0.45)" fill="#e27de2"/>
</svg>
