<svg xmlns="http://www.w3.org/2000/svg" width="33.227" height="30.63" viewBox="0 0 33.227 30.63">
  <path id="Icon_material-brush" data-name="Icon material-brush" d="M7.952,17.5a4.765,4.765,0,0,0-4.771,4.771A3.227,3.227,0,0,1,0,25.449,8.228,8.228,0,0,0,6.361,28.63a6.36,6.36,0,0,0,6.361-6.361A4.765,4.765,0,0,0,7.952,17.5Zm21.8-14.9L27.624.465a1.584,1.584,0,0,0-2.242,0L11.132,14.714l4.373,4.373L29.755,4.839a1.584,1.584,0,0,0,0-2.242Z" transform="translate(2.007 1)" fill="none" stroke="#fff" stroke-width="2"/>
</svg>
