<svg xmlns="http://www.w3.org/2000/svg" width="118.974" height="116" viewBox="0 0 118.974 116">
  <path id="Icon_simple-adobelightroomclassic" data-name="Icon simple-adobelightroomclassic" d="M0,.45v116H118.974V.45ZM4.957,5.407h109.06V111.493H4.957Zm28,75.97c-.575,0-.734-.248-.734-.734V27.383c0-.411.164-.654.575-.654H40.65c.416,0,.5.183.5.595v45.9H61.594c.411,0,.525.164.446.575l-1.229,7.039a.649.649,0,0,1-.734.57H32.966Zm36.694-32.1c0-.595,0-2.062-.248-4.843,0-.411.089-.5.416-.654a52.472,52.472,0,0,1,18.218-3.43c.4,0,.555.084.555.5v7.2c0,.416-.164.5-.575.5-3.113-.164-7.753.248-9.468.982V80.8c0,.406-.164.57-.575.57H70.19c-.4,0-.565-.164-.565-.575V49.264Z" transform="translate(0 -0.45)" fill="#2fa3f7"/>
</svg>
