<svg xmlns="http://www.w3.org/2000/svg" width="155.102" height="151.224" viewBox="0 0 155.102 151.224">
  <path id="Icon_simple-adobepremiere" data-name="Icon simple-adobepremiere" d="M0,.45V151.674H155.1V.45ZM6.463,6.913H148.639v138.3H6.463ZM40.695,35.852c0-.427.11-.75.646-.75,4.155-.213,10.23-.323,16.628-.323,17.914,0,25.7,9.817,25.7,22.4,0,16.415-11.885,23.459-26.49,23.459-2.456,0-3.309-.11-5.015-.11v24.836c0,.536-.213.75-.743.75H41.444c-.536,0-.75-.213-.75-.75ZM52.166,70.188c1.493.1,2.669.1,5.228.1,7.568,0,14.651-2.663,14.651-12.9,0-8.207-5.054-12.369-13.694-12.369-2.559,0-5.008.1-6.185.213Zm41.36-5.868c0-.743,0-2.663-.317-6.288,0-.536.071-.646.5-.853A67.34,67.34,0,0,1,117.341,52.7c.53,0,.743.1.743.64v9.384c0,.53-.168.64-.7.64a37,37,0,0,0-12.214,1.28v40.721c0,.536-.22.75-.75.75H94.27c-.53,0-.743-.213-.743-.75Z" transform="translate(0 -0.45)" fill="#e373f7"/>
</svg>
