<svg xmlns="http://www.w3.org/2000/svg" width="28.702" height="28.701" viewBox="0 0 28.702 28.701">
  <path id="Icon_metro-eyedropper" data-name="Icon metro-eyedropper" d="M25.964.987a3.369,3.369,0,0,0-4.764,0l-4.53,4.53L13.476,2.322,9.9,5.9l2.8,2.8L.278,21.122a.945.945,0,0,0-.271.775H0v4.211a.842.842,0,0,0,.842.842H5.159a.945.945,0,0,0,.67-.278L18.254,14.248l2.8,2.8,3.573-3.573-3.194-3.194,4.53-4.53a3.369,3.369,0,0,0,0-4.764ZM4.556,25.267H1.684V22.4L14.043,10.037l2.871,2.871Z" transform="translate(0.751 1)" fill="none" stroke="#fff" stroke-width="1.5"/>
</svg>
