<svg xmlns="http://www.w3.org/2000/svg" width="56.936" height="56.049" viewBox="0 0 56.936 56.049">
  <path id="Icon_simple-adobepremiere" data-name="Icon simple-adobepremiere" d="M0,.45V56.5H56.936V.45Zm2.372,2.4H54.563V54.1H2.372ZM14.939,13.571c0-.158.04-.278.237-.278,1.525-.079,3.755-.12,6.1-.12,6.576,0,9.435,3.638,9.435,8.3,0,6.084-4.363,8.695-9.724,8.695-.9,0-1.215-.041-1.841-.041v9.2c0,.2-.078.278-.273.278H15.214c-.2,0-.275-.079-.275-.278ZM19.149,26.3c.548.038.98.038,1.919.038,2.778,0,5.378-.987,5.378-4.781,0-3.042-1.855-4.584-5.027-4.584-.939,0-1.839.038-2.27.079Zm15.183-2.175c0-.275,0-.987-.116-2.331,0-.2.026-.24.183-.316a24.511,24.511,0,0,1,8.676-1.66c.195,0,.273.038.273.237V23.53c0,.2-.062.237-.259.237a13.458,13.458,0,0,0-4.484.474V39.334c0,.2-.081.278-.275.278H34.605c-.195,0-.273-.079-.273-.278Z" transform="translate(0 -0.45)" fill="#b8b8b8"/>
</svg>
