<svg xmlns="http://www.w3.org/2000/svg" width="95" height="92" viewBox="0 0 95 92">
  <g id="icons8-imovie-96" transform="translate(-4.35 -5.35)">
    <path id="Path_158" data-name="Path 158" d="M90.851,38.131A3.018,3.018,0,0,0,87.951,36H60.557L52.071,9.9a3.03,3.03,0,0,0-5.747.023L37.846,36H10.452a3.018,3.018,0,0,0-2.9,2.131,2.972,2.972,0,0,0,1.116,3.333L30.845,57.6,22.359,83.673a3,3,0,0,0,.443,2.706,3.063,3.063,0,0,0,4.225.665L49.2,70.935,71.428,87.077a3.023,3.023,0,0,0,1.726.539,3.054,3.054,0,0,0,2.449-1.24,3.02,3.02,0,0,0,.436-2.731L67.561,57.6,89.679,41.505A2.993,2.993,0,0,0,90.851,38.131ZM51.721,56.105H41.643l.008-7.558h10.07Zm6.8-4.172V50.2l.756-.328v2.391Z" transform="translate(2.149 2.803)" opacity="0.05"/>
    <path id="Path_159" data-name="Path 159" d="M88.889,37.745a1.768,1.768,0,0,0-1.7-1.245H58.882L50.115,9.544a1.768,1.768,0,0,0-3.351.01L38,36.5H9.692a1.768,1.768,0,0,0-1.7,1.245,1.729,1.729,0,0,0,.655,1.94L31.566,56.353,22.8,83.286a1.761,1.761,0,0,0,.26,1.582,1.793,1.793,0,0,0,2.467.393L48.442,68.618l22.94,16.661a1.772,1.772,0,0,0,2.7-2.005l-8.76-26.92L88.206,39.7A1.742,1.742,0,0,0,88.889,37.745ZM50.961,56.605H40.883a1.262,1.262,0,0,1-1.26-1.26V47.787a1.262,1.262,0,0,1,1.26-1.26H50.961a1.262,1.262,0,0,1,1.26,1.26v7.558A1.262,1.262,0,0,1,50.961,56.605ZM56.5,52V48.611l3.275-1.424v6.236Z" transform="translate(2.909 3.563)" opacity="0.07"/>
    <path id="Path_160" data-name="Path 160" d="M86.43,37H57.2L48.16,9.185a.507.507,0,0,0-.957,0L38.157,37H8.932a.5.5,0,0,0-.3.907L32.287,55.115,23.242,82.9a.512.512,0,0,0,.781.579L47.681,66.3,71.339,83.484a.512.512,0,0,0,.781-.579l-9.045-27.79L86.733,37.907A.5.5,0,0,0,86.43,37ZM36.343,49.043H33.824V45.768h2.519ZM52.72,54.586A2.527,2.527,0,0,1,50.2,57.105H40.123A2.527,2.527,0,0,1,37.6,54.586V47.027a2.527,2.527,0,0,1,2.519-2.519H50.2a2.527,2.527,0,0,1,2.519,2.519Zm7.558,0-5.795-2.519V47.027l5.795-2.519Z" transform="translate(3.669 5.582)" fill="#b8b8b8"/>
    <g id="Rectangle_98" data-name="Rectangle 98" transform="translate(4.35 5.35)" fill="none" stroke="#b8b8b8" stroke-width="4">
      <rect width="95" height="92" stroke="none"/>
      <rect x="2" y="2" width="91" height="88" fill="none"/>
    </g>
  </g>
</svg>
