<svg xmlns="http://www.w3.org/2000/svg" width="57.486" height="56.049" viewBox="0 0 57.486 56.049">
  <path id="Icon_simple-adobeaftereffects" data-name="Icon simple-adobeaftereffects" d="M0,.45V56.5H57.486V.45Zm2.4,2.4h52.7V54.1H2.4ZM16.249,32.187l-1.9,7.152c-.041.2-.12.271-.354.271H10.482c-.24,0-.278-.084-.24-.359l6.8-23.792a7.09,7.09,0,0,0,.235-1.964c0-.158.079-.24.2-.24H22.5c.158,0,.24.043.278.24l7.624,25.8c.038.2,0,.311-.2.311H26.249c-.2,0-.311-.072-.352-.23l-1.976-7.19H16.256ZM22.97,28.3c-.671-2.649-2.3-8.455-2.889-11.258h-.038c-.513,2.8-1.811,7.54-2.8,11.258ZM35.809,30.75c.041,3.241,1.581,5.413,5.217,5.413a9.249,9.249,0,0,0,3.9-.743c.16-.077.28-.036.28.16v3a.521.521,0,0,1-.24.479,10.666,10.666,0,0,1-4.814.91c-6.323,0-8.695-4.664-8.695-9.88,0-5.653,2.927-10.276,8.065-10.276,5.217,0,7.035,4.39,7.035,7.945a11.675,11.675,0,0,1-.2,2.532.333.333,0,0,1-.316.3,33.794,33.794,0,0,1-3.993.158h-6.24Zm4.862-3.293a13.251,13.251,0,0,0,1.777-.038c0-.163.041-.3.041-.417,0-1.305-.637-3.7-3.128-3.7-2.292,0-3.281,2.017-3.516,4.149h4.822Z" transform="translate(0 -0.45)" fill="#b8b8b8"/>
</svg>
