<svg xmlns="http://www.w3.org/2000/svg" width="57.486" height="56.049" viewBox="0 0 57.486 56.049">
  <path id="Icon_simple-adobeillustrator" data-name="Icon simple-adobeillustrator" d="M0,.45V56.5H57.486V.45Zm2.4,2.4h52.7V54.1H2.4ZM19.94,32.187l-1.9,7.181c-.041.2-.12.244-.354.244H14.173c-.24,0-.275-.079-.24-.354l6.8-23.821a7.389,7.389,0,0,0,.235-2c0-.158.079-.24.2-.24h5.02c.158,0,.24.043.278.24L34.1,39.3c.041.2,0,.316-.2.316H29.945c-.2,0-.316-.048-.354-.206l-1.976-7.222H19.933Zm6.678-3.892c-.671-2.649-2.252-8.45-2.846-11.258h-.041c-.513,2.8-1.777,7.545-2.767,11.258ZM37.4,14.982a2.45,2.45,0,0,1,4.9,0,2.3,2.3,0,0,1-2.491,2.45,2.252,2.252,0,0,1-2.419-2.45Zm.268,5.447c0-.192.079-.263.278-.263H41.7c.211,0,.287.079.287.278v18.91c0,.2-.038.278-.275.278H38c-.24,0-.319-.12-.319-.311V20.426Z" transform="translate(0 -0.45)" fill="#b8b8b8"/>
</svg>
