<svg xmlns="http://www.w3.org/2000/svg" width="57.486" height="56.049" viewBox="0 0 57.486 56.049">
  <path id="Icon_simple-adobelightroomclassic" data-name="Icon simple-adobelightroomclassic" d="M0,.45V56.5H57.486V.45Zm2.4,2.4h52.7V54.1H2.4ZM15.924,39.552c-.278,0-.354-.12-.354-.354V13.463c0-.2.079-.316.278-.316h3.794c.2,0,.24.089.24.287v22.18h9.88c.2,0,.254.079.216.278l-.594,3.4a.314.314,0,0,1-.354.275h-13.1Zm17.73-15.512c0-.287,0-1-.12-2.34,0-.2.043-.24.2-.316a25.353,25.353,0,0,1,8.8-1.658c.192,0,.268.041.268.24v3.478c0,.2-.079.24-.278.24a14.027,14.027,0,0,0-4.575.474V39.272c0,.2-.079.275-.278.275H33.914c-.192,0-.273-.079-.273-.278V24.036Z" transform="translate(0 -0.45)" fill="#b8b8b8"/>
</svg>
