<svg xmlns="http://www.w3.org/2000/svg" width="57.486" height="56.049" viewBox="0 0 57.486 56.049">
  <path id="Icon_simple-adobedreamweaver" data-name="Icon simple-adobedreamweaver" d="M0,.45V56.5H57.486V.45Zm2.4,2.4h52.7V54.1H2.4Zm5.09,10.8c0-.2.041-.28.278-.319.91-.041,3.521-.12,6.22-.12C22.007,13.209,26,18.388,26,25.976c0,10.551-6.922,13.749-12.252,13.749-2.017,0-4.944-.038-6.012-.077-.156,0-.235-.12-.235-.316V13.643Zm4.311,22.2c.671.043,1.265.081,2.017.081,4.426,0,7.705-3.123,7.746-9.84C21.607,19.53,18.206,17,13.983,17c-.831,0-1.5.048-2.172.091V35.866Zm30.391,3.761c-.278,0-.354-.108-.4-.343C40.606,32.671,39.62,28,39.181,24.764h-.038c-.513,2.937-1.461,7.8-3.042,14.558-.079.24-.158.3-.354.3H31.873c-.278,0-.354-.038-.431-.275L27.21,20.474c-.038-.16.043-.319.28-.319h3.873a.281.281,0,0,1,.316.216c1.5,8.494,2.132,12.9,2.371,14.635h.158c.278-2.055,1.107-6.338,2.884-14.558.079-.24.079-.3.316-.3h4.072c.2,0,.235.1.275.295,1.384,7.785,2.292,12.695,2.529,14.673h.12c.383-2.529.91-5.94,2.6-14.716.041-.158.079-.254.278-.254H50.92c.158,0,.278.079.2.278l-4.7,18.908c-.036.2-.072.278-.35.278H42.195Z" transform="translate(0 -0.45)" fill="#b8b8b8"/>
</svg>
