<svg xmlns="http://www.w3.org/2000/svg" width="57.486" height="56.049" viewBox="0 0 57.486 56.049">
  <path id="Icon_simple-adobephotoshop" data-name="Icon simple-adobephotoshop" d="M0,.45V56.5H57.486V.45Zm2.4,2.4h52.7V54.1H2.4Zm11.5,10.731c0-.16.335-.278.537-.278,1.543-.079,3.8-.12,6.175-.12,6.64,0,9.222,3.641,9.222,8.3,0,6.084-4.412,8.695-9.825,8.695-.91,0-1.222-.041-1.856-.041v9.2c0,.2-.079.278-.275.278h-3.7c-.2,0-.275-.072-.275-.271V13.576ZM18.144,26.3c.551.038.987.038,1.94.038,2.8,0,5.437-.987,5.437-4.781,0-3.042-1.883-4.584-5.083-4.584-.949,0-1.856.038-2.292.079v9.255ZM38.76,23.454c-1.9,0-2.529.949-2.529,1.739,0,.869.431,1.461,2.963,2.766,3.756,1.82,4.939,3.557,4.939,6.125,0,3.832-2.922,5.892-6.874,5.892a10.465,10.465,0,0,1-4.91-1.03c-.156-.079-.192-.2-.192-.4V35.037c0-.24.115-.319.273-.2a8.824,8.824,0,0,0,4.819,1.423c1.9,0,2.687-.79,2.687-1.859,0-.869-.551-1.622-2.963-2.886-3.4-1.629-4.824-3.281-4.824-6.053,0-3.083,2.41-5.653,6.6-5.653a11.164,11.164,0,0,1,4.3.671.522.522,0,0,1,.24.474v3.281c0,.2-.12.319-.359.24a8.577,8.577,0,0,0-4.175-1.03Z" transform="translate(0 -0.45)" fill="#007ddb"/>
</svg>
