<svg xmlns="http://www.w3.org/2000/svg" width="35.34" height="34.457" viewBox="0 0 35.34 34.457">
  <path id="Icon_simple-adobephotoshop-colored" data-name="Icon simple-adobephotoshop-colored" d="M0,.45V34.907H35.34V.45ZM1.473,1.923h32.4V33.434H1.473Zm7.068,6.6c0-.1.206-.171.33-.171.948-.049,2.338-.074,3.8-.074,4.082,0,5.669,2.238,5.669,5.1,0,3.74-2.712,5.345-6.04,5.345-.56,0-.751-.025-1.141-.025v5.657c0,.122-.049.171-.169.171H8.711c-.122,0-.169-.044-.169-.166V8.519Zm2.614,7.822c.339.024.607.024,1.193.024,1.723,0,3.343-.607,3.343-2.939,0-1.87-1.157-2.818-3.125-2.818-.583,0-1.141.024-1.409.049v5.69Zm12.674-1.749c-1.166,0-1.555.583-1.555,1.069,0,.535.265.9,1.821,1.7,2.309,1.119,3.036,2.187,3.036,3.765,0,2.356-1.8,3.622-4.226,3.622a6.433,6.433,0,0,1-3.019-.633c-.1-.049-.118-.121-.118-.243v-2.16c0-.147.071-.2.168-.124a5.425,5.425,0,0,0,2.963.875c1.166,0,1.652-.486,1.652-1.143,0-.535-.339-1-1.821-1.774-2.091-1-2.966-2.017-2.966-3.721,0-1.9,1.481-3.475,4.057-3.475a6.863,6.863,0,0,1,2.642.412.321.321,0,0,1,.147.292v2.017c0,.122-.074.2-.221.147a5.273,5.273,0,0,0-2.567-.633Z" transform="translate(0 -0.45)" fill="#007ddb"/>
</svg>
