<svg xmlns="http://www.w3.org/2000/svg" width="34.703" height="34.253" viewBox="0 0 34.703 34.253">
  <path id="Icon_simple-adobepremiere-colored" data-name="Icon simple-adobepremiere-colored" d="M0,.45V34.7H34.7V.45ZM1.446,1.914H33.257V33.24H1.446ZM9.105,8.469c0-.1.025-.17.145-.17.93-.048,2.289-.073,3.72-.073,4.008,0,5.751,2.224,5.751,5.074,0,3.718-2.659,5.314-5.927,5.314-.549,0-.74-.025-1.122-.025v5.625c0,.121-.048.17-.166.17H9.273c-.12,0-.168-.048-.168-.17Zm2.567,7.777c.334.023.6.023,1.17.023,1.693,0,3.278-.6,3.278-2.922,0-1.859-1.131-2.8-3.064-2.8-.573,0-1.121.023-1.384.048Zm9.254-1.329c0-.168,0-.6-.071-1.424,0-.121.016-.146.111-.193a14.905,14.905,0,0,1,5.288-1.014c.119,0,.166.023.166.145v2.125c0,.12-.038.145-.158.145a8.182,8.182,0,0,0-2.733.29v9.224c0,.121-.049.17-.168.17h-2.27c-.119,0-.166-.048-.166-.17Z" transform="translate(0 -0.45)" fill="#e373f7"/>
</svg>
