<svg xmlns="http://www.w3.org/2000/svg" width="33.551" height="33.869" viewBox="0 0 33.551 33.869">
  <path id="Icon_simple-adobeindesign-colored" data-name="Icon simple-adobeindesign-colored" d="M0,.45V34.319H33.551V.45ZM1.4,1.9H32.153V32.872H1.4ZM12.267,23.924c0,.145-.024.191-.185.191H9.935c-.14,0-.185-.072-.185-.191V8.385c0-.145.07-.191.185-.191h2.171c.115,0,.161.048.161.168V23.924Zm2.474-5.6c0-3.464,2.206-6.162,5.734-6.162.3,0,.461,0,.738.022V8.338a.137.137,0,0,1,.14-.145h2.272c.117,0,.14.049.14.122v13.54a11.159,11.159,0,0,0,.07,1.453c0,.1-.028.12-.122.168a8.235,8.235,0,0,1-3.668.861c-3.094,0-5.308-1.983-5.308-6.018Zm6.473-3.8a2.009,2.009,0,0,0-.83-.145c-1.8,0-3.057,1.433-3.057,3.821,0,2.724,1.283,3.821,2.9,3.821a2.622,2.622,0,0,0,.993-.166V14.522Z" transform="translate(0 -0.45)" fill="#007ddb"/>
</svg>
