<svg xmlns="http://www.w3.org/2000/svg" width="90" height="88" viewBox="0 0 90 88">
  <g id="Group_75" data-name="Group 75" transform="translate(-418 -2791)">
    <path id="Icon_simple-visualstudiocode" data-name="Icon simple-visualstudiocode" d="M49.763,5.521,39.144.411a3.211,3.211,0,0,0-3.665.623L15.144,19.585,6.288,12.861a2.147,2.147,0,0,0-2.743.123L.7,15.568a2.15,2.15,0,0,0,0,3.179l7.68,7.008L.7,32.762a2.15,2.15,0,0,0,0,3.179l2.844,2.582a2.147,2.147,0,0,0,2.743.123l8.856-6.724L35.481,50.473a3.207,3.207,0,0,0,3.663.623l10.623-5.11A3.224,3.224,0,0,0,51.59,43.08V8.427a3.224,3.224,0,0,0-1.827-2.906ZM38.7,37.465,23.271,25.755,38.7,14.044V37.465Z" transform="translate(435.668 2807.246)" fill="#b8b8b8"/>
    <g id="Rectangle_102" data-name="Rectangle 102" transform="translate(418 2791)" fill="none" stroke="#b8b8b8" stroke-width="5">
      <rect width="90" height="88" stroke="none"/>
      <rect x="2.5" y="2.5" width="85" height="83" fill="none"/>
    </g>
  </g>
</svg>
