<svg id="_001-clock" data-name="001-clock" xmlns="http://www.w3.org/2000/svg" width="99.559" height="95.636" viewBox="0 0 99.559 95.636">
  <path id="Path_118" data-name="Path 118" d="M49.924-250.261a6.676,6.676,0,0,0-3.229,7.354,6.006,6.006,0,0,0,3.268,4.513c1.323.661,1.362.7,1.362,2.918v2.3l-2.8.856a38.959,38.959,0,0,0-16.964,10.7l-2.8,2.918H21.443c-7.859,0-8.249.078-8.249,1.984,0,1.945,1.089,2.3,7.237,2.3h5.525l-1.6,3.5-1.634,3.5H11.832c-7.976,0-11.05.117-11.4.467-.778.778-.584,2.957.272,3.424.467.233,4.669.389,10.933.389,9.3,0,10.194.039,9.961.623a23.541,23.541,0,0,0-.506,3.5l-.233,2.879H16.151c-5.214,0-5.681.195-5.681,2.14s.467,2.14,5.72,2.14h4.786v1.051a20.466,20.466,0,0,0,.545,3.5l.506,2.451H15.645a37.318,37.318,0,0,0-7.159.389c-.856.467-1.051,2.646-.272,3.424.311.311,2.607.467,7.743.467h7.276l1.362,2.879a40.22,40.22,0,0,0,19.143,18.948A34.943,34.943,0,0,0,58.522-155.4c8.171.311,15.019-1.284,21.205-4.864,2.918-1.712,3.735-3.035,2.529-4.358a2.363,2.363,0,0,0-1.362-.778,23.453,23.453,0,0,0-4.358,1.906,32.731,32.731,0,0,1-14.707,3.852c-16.847.661-31.166-9.922-35.679-26.38-.545-1.984-.7-3.93-.661-8.949,0-5.953.078-6.653,1.089-9.727a34.146,34.146,0,0,1,8.365-14.163,34.788,34.788,0,0,1,40-7.626,33.633,33.633,0,0,1,11.05,8.093,33.991,33.991,0,0,1,9.3,23.968,34.213,34.213,0,0,1-4.513,17.275c-1.6,2.8-1.556,4.124.117,4.786,1.517.545,2.49-.311,4.28-3.813,3.424-6.614,4.591-12.023,4.28-20.193-.195-6.264-.973-9.727-3.346-14.746a36.333,36.333,0,0,0-7.2-10.622,39.084,39.084,0,0,0-16.886-10.583l-2.8-.856V-235.4c0-2.14.039-2.3,1.44-3.19a6.3,6.3,0,0,0,3.229-5.8,6.263,6.263,0,0,0-3.074-5.72c-1.284-.856-1.6-.895-10.505-.895C52.025-251,51.013-250.922,49.924-250.261Zm18.987,4.2a2.334,2.334,0,0,1-.311,3.58c-.973.778-1.556.817-8.171.817-7.509,0-8.871-.233-9.377-1.712a2.468,2.468,0,0,1,.545-2.685c.545-.584,1.479-.661,8.6-.661C67.082-246.72,68.288-246.642,68.911-246.059ZM64.942-235.67v1.712H55.6v-3.424h9.338Z" transform="translate(0.057 251)" fill="#fff"/>
  <path id="Path_119" data-name="Path 119" d="M101.19-183.351A30.2,30.2,0,0,0,77.222-152.03a27.22,27.22,0,0,0,2.335,10.389,30.682,30.682,0,0,0,22.45,17.859,30.037,30.037,0,0,0,26.652-8.21,28.629,28.629,0,0,0,9.027-20.038,30.2,30.2,0,0,0-18.948-29.843A33.8,33.8,0,0,0,101.19-183.351Zm11.867,4.28c8.521,1.79,16.341,8.91,19.182,17.47.895,2.724,1.051,3.813,1.051,8.015,0,4.28-.117,5.214-1.012,7.821a27.232,27.232,0,0,1-18.015,17.314,32.14,32.14,0,0,1-13.618,0C88.778-132.031,80.8-143,81.5-154.948a26.16,26.16,0,0,1,8.6-17.976,28.283,28.283,0,0,1,11.556-6.148A31.19,31.19,0,0,1,113.057-179.071Z" transform="translate(-47.124 210.003)" fill="#fff"/>
  <path id="Path_120" data-name="Path 120" d="M146.311-142.059l-4.98,4.9h-5.486l-2.3-2.179c-2.451-2.335-3.735-2.762-4.864-1.6-1.089,1.089-.7,2.179,1.6,4.513l2.218,2.257.039,2.685c0,2.918.545,4.046,2.685,5.642a7.038,7.038,0,0,0,6.692,0c2.14-1.6,2.685-2.724,2.685-5.6v-2.685l4.98-5.019c2.724-2.762,4.941-5.292,4.941-5.642A2.864,2.864,0,0,0,152.109-147C151.564-147,149.58-145.327,146.311-142.059Z" transform="translate(-78.239 187.465)" fill="#fff"/>
</svg>
