<svg id="_002-amnesia" data-name="002-amnesia" xmlns="http://www.w3.org/2000/svg" width="86.571" height="86.554" viewBox="0 0 86.571 86.554">
  <path id="Path_121" data-name="Path 121" d="M228.231-255.358A4.751,4.751,0,0,0,226-250.928a4.751,4.751,0,0,0,2.231,4.429,5.122,5.122,0,0,0,2.84.642,4.751,4.751,0,0,0,4.429-2.231,6.447,6.447,0,0,0,0-5.68A4.751,4.751,0,0,0,231.072-256,5.122,5.122,0,0,0,228.231-255.358Z" transform="translate(-149.589 256)" fill="#fff"/>
  <path id="Path_122" data-name="Path 122" d="M143.2-245.338a5.593,5.593,0,0,0,1.927,10.549,5.546,5.546,0,0,0,3.854-9.974A6.1,6.1,0,0,0,143.2-245.338Zm4.226,3.246a2.541,2.541,0,0,1-1.724,4.328,2.625,2.625,0,0,1-2.57-2.5A2.531,2.531,0,0,1,147.428-242.093Z" transform="translate(-92.757 249.26)" fill="#fff"/>
  <path id="Path_123" data-name="Path 123" d="M101.98-238.02a3.011,3.011,0,0,0-.98,2.7c0,2.231,1.183,3.719,3.246,3.99a3.8,3.8,0,0,0,4.429-4.429c-.27-2.062-1.758-3.246-3.99-3.246A3.011,3.011,0,0,0,101.98-238.02Z" transform="translate(-66.852 244.748)" fill="#fff"/>
  <path id="Path_124" data-name="Path 124" d="M187.844-227.256a5.152,5.152,0,0,0-2.6,4.564,4.9,4.9,0,0,0,.642,3.313,6.4,6.4,0,0,0,5,2.874,6.4,6.4,0,0,0,5-2.874,4.9,4.9,0,0,0,.642-3.313A5.257,5.257,0,0,0,190.886-228,4.95,4.95,0,0,0,187.844-227.256Zm4.226,2.367a2.793,2.793,0,0,1-1.183,5.342,2.789,2.789,0,0,1-1.386-5.241A2.184,2.184,0,0,1,192.07-224.889Z" transform="translate(-122.59 237.467)" fill="#fff"/>
  <path id="Path_125" data-name="Path 125" d="M121.981-213.29a4.7,4.7,0,0,0,.507,7.81,4.43,4.43,0,0,0,6.728-3.854c0-3.009-1.657-4.666-4.666-4.666A3.82,3.82,0,0,0,121.981-213.29Z" transform="translate(-79.515 228.2)" fill="#fff"/>
  <path id="Path_126" data-name="Path 126" d="M52.964-208.3a29,29,0,0,0-9.94,3.956c-.676.507-.913.913-.845,1.555.169,1.352,1.082,1.724,2.4.947,4.936-2.874,8.385-3.854,14.4-4.192,3.449-.2,4.26-.338,4.564-.845a.964.964,0,0,0,0-1.183c-.3-.473-.98-.575-4.4-.642A33.5,33.5,0,0,0,52.964-208.3Z" transform="translate(-27.91 224.701)" fill="#fff"/>
  <path id="Path_127" data-name="Path 127" d="M156.468-207.478c-3.313,1.657-3.28,7.134.034,8.723a4.729,4.729,0,0,0,6.965-4.362A4.75,4.75,0,0,0,156.468-207.478Z" transform="translate(-101.932 224.247)" fill="#fff"/>
  <path id="Path_128" data-name="Path 128" d="M220.7-201.363a4.9,4.9,0,0,0-2.7,4.8,4.834,4.834,0,0,0,.778,3.077,5.562,5.562,0,0,0,7.337,1.555,4.735,4.735,0,0,0,2.536-4.632,4.813,4.813,0,0,0-2.536-4.666A5.854,5.854,0,0,0,220.7-201.363Zm4.5,3.178a2.645,2.645,0,0,1-1.521,4.192c-.744.169-1.116,0-1.961-.811a3.566,3.566,0,0,1-1.014-1.758,3.566,3.566,0,0,1,1.014-1.758c.845-.811,1.217-.981,1.961-.811A3.416,3.416,0,0,1,225.2-198.184Z" transform="translate(-144.294 220.229)" fill="#fff"/>
  <path id="Path_129" data-name="Path 129" d="M55.8-185.5a16.4,16.4,0,0,0-2.468,1.183,2.779,2.779,0,0,1-2.434.541,7.277,7.277,0,0,0-6.187,2.367,6.108,6.108,0,0,0-1.386,1.995c0,.27-.44.642-.947.811a7.911,7.911,0,0,0-4.835,7.675,36.045,36.045,0,0,1-.135,5.917c-.237,3.077.44,4.835,1.927,5,1.42.169,1.826-.913,1.082-2.874-.575-1.454-.575-1.589.034-3.347.541-1.589.575-1.995.169-3.144a5.274,5.274,0,0,1,3.246-6.661,3.141,3.141,0,0,0,2.2-2.062,4.542,4.542,0,0,1,3.652-2.806,8.835,8.835,0,0,1,2.13.406c1.251.372,1.352.338,2.4-.642a5.031,5.031,0,0,1,4.26-1.792c2.367,0,3.482-1.251,2.2-2.5C60.062-186.112,57.527-186.146,55.8-185.5Z" transform="translate(-24.731 209.644)" fill="#fff"/>
  <path id="Path_130" data-name="Path 130" d="M9.771-182.889c-1.86,1.995-4.023,7.641-4.023,10.616a15.809,15.809,0,0,1-.879,3.449l-.879,2.434.879,1.893a12.259,12.259,0,0,1,.879,2.434,14.22,14.22,0,0,1-2.874,3.313C.034-155.976,0-155.908,0-154.285A3.536,3.536,0,0,0,2.4-150.5l1.319.609-1.014.879a2.562,2.562,0,0,0-.338,3.787c.541.473.642.879.473,1.893-.237,1.454.507,3.009,1.42,3.009.338,0,.473.2.338.575-.744,2.536-.44,4.463,1.048,6.187,2.029,2.434,4.666,2.975,10.515,2.231,5-.676,6.187-.44,8.216,1.589a17.765,17.765,0,0,1,2.671,4.125c1.488,3.111,2.367,3.888,4.429,3.888,1.319,0,20.218-4.632,22.382-5.477a4.518,4.518,0,0,0,2.367-2.908,11.368,11.368,0,0,0-1.183-5.038,1.476,1.476,0,0,0-2.3.27c-.3.507-.237,1.082.2,2.4.473,1.488.473,1.758.068,2.164-.575.609-21.1,5.984-21.774,5.748a10.894,10.894,0,0,1-1.826-2.908c-1.724-3.415-3.246-5.139-5.612-6.289-1.995-.98-1.251-.947-10.447-.27-4.26.338-6.627-1.082-6.086-3.651.1-.609.3-1.758.406-2.536.169-1.319.1-1.488-.879-2.062-.913-.575-1.014-.71-.541-1.082.778-.642.609-1.454-.473-2.5l-.98-.913.811-.879c1.758-1.927,1.488-3.888-.676-4.869-2.7-1.183-2.739-1.826-.338-3.685a17.517,17.517,0,0,0,2.874-3.009c1.589-2.231,1.691-3.55.44-5.714-.879-1.454-.879-1.555-.338-2.671a22.164,22.164,0,0,0,1.048-4.362,19.76,19.76,0,0,1,2.874-8.25c1.082-1.623,1.285-2.637.609-3.313C11.462-184.173,10.819-184,9.771-182.889Z" transform="translate(0 208.28)" fill="#fff"/>
  <path id="Path_131" data-name="Path 131" d="M186.5-182.514a5.56,5.56,0,0,0-1.589,1.386c-.778.879-.913,1.386-.913,3.077,0,1.826.1,2.13,1.15,3.28,1.15,1.217,1.217,1.251,3.55,1.251,2.231,0,2.468-.068,3.482-1.116,1.048-1.014,1.116-1.251,1.116-3.449s-.068-2.434-1.082-3.449c-.947-.913-1.352-1.082-3.043-1.183A9.166,9.166,0,0,0,186.5-182.514Z" transform="translate(-121.789 207.499)" fill="#fff"/>
  <path id="Path_132" data-name="Path 132" d="M111.758-179.459A4.638,4.638,0,0,0,110-176.112a4.638,4.638,0,0,0,1.758,3.347,4.7,4.7,0,0,0,2.3.541,3.533,3.533,0,0,0,3.55-2.029,4.106,4.106,0,0,0-1.251-5.207,4.7,4.7,0,0,0-2.3-.541A4.7,4.7,0,0,0,111.758-179.459Z" transform="translate(-72.809 205.696)" fill="#fff"/>
  <path id="Path_133" data-name="Path 133" d="M149.243-172.447a5.465,5.465,0,0,0-2.434,7.743,4.755,4.755,0,0,0,4.632,2.6c3.381,0,5.41-2.029,5.41-5.376a4.688,4.688,0,0,0-2.84-4.733A5.524,5.524,0,0,0,149.243-172.447ZM153.435-169a2.271,2.271,0,0,1-.135,3.347,2.271,2.271,0,0,1-3.347.135,2.528,2.528,0,0,1-.2-3.685A2.528,2.528,0,0,1,153.435-169Z" transform="translate(-96.668 200.983)" fill="#fff"/>
  <path id="Path_134" data-name="Path 134" d="M201.164-146.655A3.854,3.854,0,0,0,199-142.868a3.015,3.015,0,0,0,.98,2.671,3.011,3.011,0,0,0,2.7.98c2.231,0,3.719-1.183,3.99-3.246A3.931,3.931,0,0,0,201.164-146.655Z" transform="translate(-131.718 183.846)" fill="#fff"/>
  <path id="Path_135" data-name="Path 135" d="M61.921-143.209a6.58,6.58,0,0,0-1.589,1.386,6.66,6.66,0,0,1-1.961,1.454,4.414,4.414,0,0,0-1.657,6.728l.71.947-.778.3a10.41,10.41,0,0,1-1.42.406,1.933,1.933,0,0,0-1.014.71c-.879,1.42,1.319,2.434,3.584,1.657.913-.3,1.082-.27,1.826.609a6.013,6.013,0,0,0,4.125,2.062c1.691,0,2.3.879,3.787,5.579,1.758,5.545,2.1,5.917,5.511,5.917,3.922,0,4.7-1.116,3.449-5.173-.27-.879-.406-1.589-.3-1.589a10.847,10.847,0,0,1,1.488.676,8.119,8.119,0,0,0,5.849.2,6.8,6.8,0,0,0,3.482-4.091c.1-.642.338-1.183.507-1.183a7.341,7.341,0,0,0,1.691-1.251c3.009-2.7,3.922-7.1,1.42-6.8-.913.1-1.014.237-1.995,2.57a5.819,5.819,0,0,1-6.525,3.482c-1.792-.406-1.893-.507-1.893-1.995,0-1.15-.068-1.251-1.082-1.352-.913-.1-1.15.068-1.623.947a4.841,4.841,0,0,1-3.482,2.367,4.785,4.785,0,0,1-1.826-.541c-1.014-.541-1.15-.507-2.5.237l-1.42.778-1.386-.947c-.845-.609-1.589-.879-1.927-.744-1.555.609-3.854-1.183-3.854-3.009,0-.778-.338-1.251-1.826-2.468-1.183-.947-.068-2.772,1.691-2.772.507,0,.98-.406,1.454-1.183.913-1.589,2.1-2.1,3.55-1.589a6.608,6.608,0,0,0,2.637.2c2.13-.3,2.739.135,2.772,1.927.034,1.352.1,1.488.947,1.589.744.1,1.082-.135,1.792-1.251,1.048-1.691,2.5-1.927,3.415-.541,1.082,1.657,2.84,1.352,2.84-.507,0-1.961-3.55-3.922-5.714-3.178a2.533,2.533,0,0,1-2.164-.338c-.98-.473-2.231-.676-5.41-.744C63.476-143.851,62.834-143.784,61.921-143.209Zm10.954,20.624c.609,2.029,1.082,3.854,1.082,4.057,0,.507-1.86.473-2.3-.068a27.338,27.338,0,0,1-1.352-3.618l-1.014-3.212.913-.406a6.131,6.131,0,0,1,1.217-.44C71.624-126.27,72.267-124.613,72.875-122.585Z" transform="translate(-35.752 181.719)" fill="#fff"/>
  <path id="Path_136" data-name="Path 136" d="M162.052-132.183c-.068.44-.3,2.265-.507,4.057-.609,5.511-2.1,8.351-7.033,13.321a21.756,21.756,0,0,0-3.144,3.719c-.473,1.217-.406,5.342.068,5.815.507.507,1.86.541,2.164.034a11.672,11.672,0,0,0,.27-2.536l.034-2.164,2.739-2.772c1.488-1.555,3.212-3.449,3.787-4.226a21.7,21.7,0,0,0,4.057-13.254l-.1-2.57-1.082-.1C162.39-132.961,162.187-132.826,162.052-132.183Z" transform="translate(-99.976 174.514)" fill="#fff"/>
</svg>
