<svg id="_003-power-bank" data-name="003-power-bank" xmlns="http://www.w3.org/2000/svg" width="77.328" height="77.297" viewBox="0 0 77.328 77.297">
  <path id="Path_137" data-name="Path 137" d="M6.9-251.19a6.876,6.876,0,0,0-2.119,2.119L4-247.73v68.757l.779,1.34a6.45,6.45,0,0,0,2.151,2.151l1.34.779H54.586l1.34-.779a5.837,5.837,0,0,0,2.93-5.08v-1.59l2.431-.094,2.4-.094.094-1.184.094-1.153H66.8c4.893,0,7.979-1.714,9.818-5.454l.779-1.558.093-16.457c.062-14.182.156-16.426.53-16.426.281,0,1.06-1.184,1.87-2.805l1.434-2.836-.094-4.582-.094-4.582-1.153-.094-1.153-.094-.094-3.647-.093-3.647H68.986l-.093,3.647-.093,3.647-1.153.094-1.153.094L66.4-234.8l-.093,4.582,1.434,2.836c.81,1.652,1.59,2.805,1.87,2.805.405,0,.468,1.9.468,14.8,0,16.457-.031,16.613-1.87,17.267a10.59,10.59,0,0,1-2.68.343H63.874l-.094-1.184-.094-1.153-2.4-.094-2.431-.094V-247.73l-.779-1.34a6.45,6.45,0,0,0-2.151-2.151L54.586-252H8.208Zm47.376,2.4a4.791,4.791,0,0,1,1.371,1.371c.53.779.561,2.867.561,34.067s-.031,33.288-.561,34.067a4.791,4.791,0,0,1-1.371,1.371c-.779.53-2.338.561-22.846.561s-22.067-.031-22.846-.561a4.791,4.791,0,0,1-1.371-1.371c-.53-.779-.561-2.9-.655-32.976-.062-17.641,0-32.7.094-33.412a4.322,4.322,0,0,1,2.743-3.491c.592-.187,9.974-.281,22.5-.249C51.906-249.351,53.5-249.32,54.274-248.79Zm22.036,6.764v2.493H71.323v-4.987H76.31Zm2.493,7.792c0,2.618-.094,2.992-1.091,4.987l-1.091,2.182h-5.61l-1.091-2.182c-1-1.995-1.091-2.369-1.091-4.987v-2.805H78.8ZM75-208.926c-.094,15.241-.125,15.709-.748,17.08a8.2,8.2,0,0,1-3.99,3.9,15.189,15.189,0,0,1-3.8.686l-2.618.187v-2.587h2.743c3.086,0,4.3-.5,5.361-2.244.592-1,.623-1.621.623-16.862v-15.8h2.525ZM61.35-188.417v3.74H58.856v-7.48H61.35Z" transform="translate(-4 252)" fill="#fff"/>
  <path id="Path_138" data-name="Path 138" d="M20.218-235.782A12.28,12.28,0,0,0,20-232.665v2.9h2.493v-3.74h3.74V-236h-2.9A12.281,12.281,0,0,0,20.218-235.782Z" transform="translate(-15.013 240.987)" fill="#fff"/>
  <path id="Path_139" data-name="Path 139" d="M144-234.822v1.247h3.74v3.74h2.525l-.093-3.054-.094-3.023-3.023-.094L144-236.1Z" transform="translate(-100.364 241.056)" fill="#fff"/>
  <path id="Path_140" data-name="Path 140" d="M72.634-198.918c-.343.561-2.4,4.364-4.582,8.415-2.9,5.392-3.958,7.636-3.865,8.26l.094.873,2.93.094,2.9.093-.187,1.621a105.527,105.527,0,0,0-.748,10.66c.093,1.184.156,1.247,1.153,1.247,1.06,0,1.091-.062,6.171-8.26,4.021-6.514,5.08-8.447,5.018-9.195l-.093-.935-3.023-.094-3.054-.094L75.283-193l-.094-6.764-.966-.094C73.382-199.946,73.133-199.79,72.634-198.918Zm2.774,15.21,2.369.156L75-179.032c-2.743,4.426-2.774,4.488-2.556,2.961a41.884,41.884,0,0,0,.218-4.519l.031-2.961-2.4-.094a9.934,9.934,0,0,1-2.431-.249c0-.094,1.091-2.182,2.431-4.644l2.4-4.488.156,4.582.156,4.582Z" transform="translate(-45.424 216.122)" fill="#fff"/>
  <path id="Path_141" data-name="Path 141" d="M49.06-70.94A2.825,2.825,0,0,0,48-68.26a2.825,2.825,0,0,0,1.06,2.68,2.825,2.825,0,0,0,2.68,1.06,2.825,2.825,0,0,0,2.68-1.06,2.825,2.825,0,0,0,1.06-2.68,2.825,2.825,0,0,0-1.06-2.68A2.825,2.825,0,0,0,51.74-72,2.825,2.825,0,0,0,49.06-70.94Z" transform="translate(-34.286 128.103)" fill="#fff"/>
  <path id="Path_142" data-name="Path 142" d="M81.06-70.94A2.825,2.825,0,0,0,80-68.26a2.825,2.825,0,0,0,1.06,2.68,2.825,2.825,0,0,0,2.68,1.06,2.825,2.825,0,0,0,2.68-1.06,2.825,2.825,0,0,0,1.06-2.68,2.825,2.825,0,0,0-1.06-2.68A2.825,2.825,0,0,0,83.74-72,2.825,2.825,0,0,0,81.06-70.94Z" transform="translate(-56.312 128.103)" fill="#fff"/>
  <path id="Path_143" data-name="Path 143" d="M113.06-70.94A2.825,2.825,0,0,0,112-68.26a2.825,2.825,0,0,0,1.06,2.68,2.825,2.825,0,0,0,2.68,1.06,2.825,2.825,0,0,0,2.68-1.06,2.825,2.825,0,0,0,1.06-2.68,2.825,2.825,0,0,0-1.06-2.68A2.825,2.825,0,0,0,115.74-72,2.825,2.825,0,0,0,113.06-70.94Z" transform="translate(-78.338 128.103)" fill="#fff"/>
  <path id="Path_144" data-name="Path 144" d="M19.994-36.977l.094,3.054,3.054.094,3.023.094V-36.26h-3.74V-40H19.9Z" transform="translate(-14.944 106.077)" fill="#fff"/>
  <path id="Path_145" data-name="Path 145" d="M147.74-38.13v1.87H144v2.525l3.054-.094,3.023-.094.094-3.054L150.265-40H147.74Z" transform="translate(-100.364 106.077)" fill="#fff"/>
</svg>
