<svg xmlns="http://www.w3.org/2000/svg" width="20.756" height="20.757" viewBox="0 0 20.756 20.757">
  <path id="Icon_metro-eyedropper" data-name="Icon metro-eyedropper" d="M18.368.7A2.383,2.383,0,0,0,15,.7l-3.2,3.2-2.26-2.26L7.005,4.171,8.987,6.152.2,14.943A.669.669,0,0,0,0,15.491H0V18.47a.6.6,0,0,0,.6.6H3.649a.668.668,0,0,0,.474-.2l8.791-8.791L14.9,12.061l2.528-2.528-2.26-2.26,3.2-3.2a2.383,2.383,0,0,0,0-3.37ZM3.223,17.875H1.192V15.843L9.935,7.1l2.031,2.031Z" transform="translate(0.94 20.006) rotate(-90)" fill="none" stroke="#f2d300" stroke-width="1.5"/>
</svg>
