<svg xmlns="http://www.w3.org/2000/svg" width="22.382" height="24.385" viewBox="0 0 22.382 24.385">
  <path id="Icon_material-brush" data-name="Icon material-brush" d="M5.625,12.378A3.371,3.371,0,0,0,2.25,15.754,2.283,2.283,0,0,1,0,18a5.821,5.821,0,0,0,4.5,2.25,4.5,4.5,0,0,0,4.5-4.5A3.371,3.371,0,0,0,5.625,12.378ZM21.05,1.837,19.542.329a1.12,1.12,0,0,0-1.586,0L7.875,10.41,10.969,13.5,21.05,3.423a1.12,1.12,0,0,0,0-1.586Z" transform="translate(1.128 22.379) rotate(-90)" fill="none" stroke="#f2d300" stroke-width="2"/>
</svg>
