<svg xmlns="http://www.w3.org/2000/svg" width="21.63" height="24.851" viewBox="0 0 21.63 24.851">
  <g id="Icon_ionic-ios-cut" data-name="Icon ionic-ios-cut" transform="translate(-4.844 -2.875)">
    <path id="Path_18" data-name="Path 18" d="M18.642,16.514a62.139,62.139,0,0,0,5.17-7.761,6.818,6.818,0,0,0,.6-2.648,2.9,2.9,0,0,0-1.049-2.327,1.777,1.777,0,0,0-1.146-.4l-6.557,8.8-.573.768-.166.224-.006.006-.831,1.129c-.006.006-.011.017-.017.023-.029.046-.43.625-.871,1.3-.172.264-.35.545-.516.808-.2.321-.378.631-.5.871-.206.407-.418.825-.613,1.232-.212.43-.413.837-.6,1.187A3.352,3.352,0,0,0,9,19.1,3.453,3.453,0,0,0,6.37,20.337a4.4,4.4,0,0,0,0,5.646A3.462,3.462,0,0,0,9,27.221a3.379,3.379,0,0,0,2.247-.86,4.055,4.055,0,0,0,1.25-2.029,16.684,16.684,0,0,1,1.5-3.284,5.152,5.152,0,0,1,1.7-1.593l.774-.556A11.963,11.963,0,0,0,18.642,16.514ZM9.006,24.762a1.624,1.624,0,0,1,0-3.21,1.624,1.624,0,0,1,0,3.21Zm6.661-7.618a.917.917,0,1,1,.917-.917A.92.92,0,0,1,15.667,17.145Z" transform="translate(0 -0.001)" fill="none" stroke="#f0b" stroke-width="1"/>
    <path id="Path_19" data-name="Path 19" d="M12.316,15.55a.918.918,0,0,0,.143.155c.1-.16.206-.327.31-.493l2.665-3.772L9.416,3.375a1.739,1.739,0,0,0-1.06.224A3.166,3.166,0,0,0,7.249,6.1a6.9,6.9,0,0,0,.6,2.648A50.828,50.828,0,0,0,12.316,15.55Z" transform="translate(-0.352)" fill="none" stroke="#f0b" stroke-width="1"/>
    <path id="Path_20" data-name="Path 20" d="M24.826,22.267a3.352,3.352,0,0,0-1.966.636c-.183-.35-.384-.757-.6-1.187-.195-.4-.4-.8-.6-1.192l-.625.8-2.086,1.9a4.934,4.934,0,0,1,.877,1,16.53,16.53,0,0,1,1.49,3.284,4.055,4.055,0,0,0,1.25,2.029,3.4,3.4,0,0,0,2.247.86,3.885,3.885,0,0,0,3.668-4.064A3.881,3.881,0,0,0,24.826,22.267Zm.006,5.663a1.624,1.624,0,0,1,0-3.21,1.624,1.624,0,0,1,0,3.21Z" transform="translate(-2.515 -3.169)" fill="none" stroke="#f0b" stroke-width="1"/>
  </g>
</svg>
