<svg xmlns="http://www.w3.org/2000/svg" width="6.308" height="8.201" viewBox="0 0 6.308 8.201">
  <path id="Icon_ionic-ios-lock" data-name="Icon ionic-ios-lock" d="M12.27,6.213H11.8V5.293a1.893,1.893,0,1,0-3.785-.026v.946H7.539A.791.791,0,0,0,6.75,7v3.785a.791.791,0,0,0,.789.789H12.27a.791.791,0,0,0,.789-.789V7A.791.791,0,0,0,12.27,6.213Zm-2.09,2.46V10.03a.283.283,0,0,1-.262.284.276.276,0,0,1-.29-.276V8.674a.631.631,0,1,1,.552,0Zm1.065-2.46H8.564V5.267a1.341,1.341,0,0,1,2.681,0Z" transform="translate(-6.75 -3.374)" fill="#fff"/>
</svg>
